<svg width="38" height="54" viewBox="0 0 38 54" fill="none" xmlns="http://www.w3.org/2000/svg">
<path fill-rule="evenodd" clip-rule="evenodd" d="M4.6626 39.4338H35.7028V15.4225C35.7028 6.93954 28.7633 0 20.2803 0H20.0851C11.6021 0 4.6626 6.93954 4.6626 15.4225V39.4338Z" fill="#262F33"/>
<path fill-rule="evenodd" clip-rule="evenodd" d="M3.73452 53.5873C3.1663 52.0128 2.5534 50.2581 2.09252 48.7715C1.32227 46.2879 0.975021 44.5531 0.921114 43.1214C0.86672 41.6897 1.10566 40.5615 1.67 39.4552C2.23384 38.3488 3.12259 37.2644 4.73886 36.3751C6.35512 35.4854 8.69696 34.7914 10.5735 34.347C12.4501 33.9022 13.8595 33.7069 14.8357 33.5554C15.8118 33.4029 16.3538 33.2951 16.6472 33.198C16.94 33.0999 16.9832 33.0129 17.0163 32.7206C17.0488 32.4277 17.0702 31.9285 17.0813 31.4948C17.092 31.0611 17.092 30.6925 16.9725 30.4215C16.8531 30.15 16.6141 29.9766 16.0828 29.6294C15.5515 29.2821 14.7269 28.7625 13.7944 27.8077C12.8619 26.8533 11.8207 25.4649 11.2787 23.9792C10.7362 22.4931 10.6925 20.9099 10.9315 19.652C11.1699 18.3937 11.6905 17.4612 12.32 16.7561C12.9484 16.0509 13.6866 15.574 14.7604 15.2267C15.8342 14.8795 17.2435 14.6624 18.7729 14.5002C20.3022 14.3375 21.9505 14.2292 23.4799 13.8931C25.0092 13.5566 26.4186 12.9927 27.3301 12.4721C28.2407 11.9515 28.6535 11.4741 29.0328 10.9972C29.4121 10.5202 29.7594 10.0428 29.9328 9.91268C30.1061 9.78253 30.1061 9.99962 30.1061 11.2468C30.1061 12.4939 30.1061 14.7712 30.1061 16.7779C30.1061 18.7842 30.1061 20.5189 29.8895 21.9511C29.6725 23.3824 29.2383 24.5105 28.588 25.5411C27.9367 26.5712 27.0693 27.5036 26.234 28.1549C25.3987 28.8052 24.5969 29.1738 24.033 29.4128C23.4687 29.6512 23.1428 29.76 22.9806 29.8902C22.8179 30.0203 22.8179 30.1718 22.85 30.6492C22.8825 31.1262 22.9481 31.9285 23.0126 32.3952C23.0777 32.8614 23.1433 32.9916 23.4255 33.1761C23.7071 33.3602 24.2064 33.5986 25.7032 34.0221C27.1995 34.4446 29.6938 35.0522 31.5923 35.7574C33.4902 36.4621 34.7908 37.2644 35.7242 38.0453C36.6567 38.8262 37.2205 39.5858 37.5464 40.3123C37.8718 41.0389 37.9582 41.7324 37.8936 42.9587C37.8281 44.184 37.6115 45.9406 37.2215 47.8172C36.8305 49.6938 36.2662 51.6893 35.8981 53.1861L35.8005 53.5878H3.73452V53.5873Z" fill="#8A631F"/>
<path fill-rule="evenodd" clip-rule="evenodd" d="M9.86914 33.2844L14.0341 31.9828L20.183 47.6326L14.1643 45.2252L15.14 40.2468H9.86914V33.2844Z" fill="#FFFFFE"/>
<path fill-rule="evenodd" clip-rule="evenodd" d="M30.496 33.2844L26.331 31.9828L20.1816 47.6326L26.2004 45.2252L25.2247 40.2468H30.496V33.2844Z" fill="#FFFFFE"/>
<path d="M34.3362 46.4618H27.3408V49.6826H34.3362V46.4618Z" fill="#FFFFFE"/>
</svg>
