<svg width="23" height="20" viewBox="0 0 23 20" fill="none" xmlns="http://www.w3.org/2000/svg">
<path d="M1.53971 9.61424L1.53974 9.61431L1.54789 9.61088L1.35381 9.15009C1.54789 9.61088 1.54793 9.61087 1.548 9.61083L1.54834 9.61069L1.54967 9.61013L1.55499 9.60789L1.57602 9.59903L1.65841 9.56432L1.97417 9.4313L3.1268 8.94553C4.09528 8.53728 5.42188 7.97786 6.85434 7.37317C9.71879 6.16398 13.008 4.77317 14.7027 4.04847L14.7027 4.04852L14.7098 4.04535C15.3538 3.758 16.7744 3.15174 18.0389 2.61524C18.67 2.34745 19.2607 2.09774 19.6936 1.91497L20.2098 1.69715L20.3517 1.63737L20.3887 1.62176L20.3943 1.61941L20.4027 1.61627C20.4129 1.6125 20.4296 1.60653 20.4518 1.59919C20.4963 1.58441 20.5614 1.56455 20.6393 1.54579C20.8013 1.50676 20.9905 1.47943 21.1578 1.49436C21.3229 1.5091 21.4136 1.55872 21.4657 1.62153C21.5187 1.68542 21.6078 1.85457 21.5719 2.27142L21.5719 2.27141L21.5713 2.27952C21.532 2.84394 21.291 4.44808 20.9896 6.45484C20.8716 7.24066 20.7443 8.08821 20.6161 8.95925C20.2775 11.1313 19.9248 13.4043 19.6568 15.1345C19.5227 15.9999 19.4098 16.7295 19.3304 17.2428L19.238 17.8404L19.2135 17.9986L19.2073 18.0392L19.2057 18.0495L19.2053 18.0521L19.2052 18.0528L19.2051 18.053L19.6993 18.1293L19.2051 18.053L19.2025 18.07L19.2012 18.0851L19.2012 18.0853L19.2012 18.0854L19.2012 18.0855L19.2012 18.086L19.2011 18.0865L19.2011 18.0868L19.2007 18.0906C19.2 18.0964 19.1989 18.1065 19.197 18.1204C19.1933 18.1483 19.1868 18.1908 19.1763 18.2436C19.155 18.3506 19.1188 18.4918 19.0601 18.6352C18.9365 18.9373 18.7589 19.1472 18.5094 19.2075C18.3767 19.2395 18.1854 19.2341 17.937 19.1746C17.694 19.1165 17.4316 19.0153 17.1756 18.8941C16.6581 18.6489 16.2279 18.3515 16.1218 18.2644L16.1156 18.2593L16.1093 18.2544C16.0462 18.2059 15.8034 18.0431 15.4735 17.822C15.419 17.7854 15.3621 17.7473 15.3033 17.7078C14.8732 17.4193 14.3069 17.0385 13.7024 16.6237C12.4851 15.7884 11.1413 14.8346 10.4323 14.2192C10.2743 14.0799 10.1621 13.9172 10.1386 13.7659C10.1216 13.6562 10.1326 13.4381 10.4937 13.1138L10.4938 13.1139L10.5022 13.106C12.5384 11.1905 14.9709 8.81021 16.4447 7.29771C16.6472 7.08989 16.8454 6.81888 16.9829 6.55605C17.0517 6.42472 17.1138 6.27937 17.1497 6.13307C17.1823 6.00013 17.2115 5.79454 17.1292 5.58945C17.0269 5.33431 16.803 5.19682 16.566 5.16635C16.3653 5.14052 16.1572 5.18836 15.9677 5.2553C15.579 5.39261 15.0471 5.69263 14.3328 6.19109L14.3328 6.19108L14.33 6.1931C12.3289 7.61046 10.3413 8.98479 8.85374 10.005C8.11003 10.515 7.49149 10.9364 7.05895 11.2303C6.84268 11.3772 6.67292 11.4922 6.55728 11.5704L6.42536 11.6596L6.39218 11.682C6.3901 11.6832 6.38733 11.6847 6.38389 11.6865C6.36888 11.6945 6.34102 11.7084 6.30052 11.7252C6.21961 11.7588 6.088 11.8042 5.90706 11.8371C5.54816 11.9025 4.9802 11.9216 4.21042 11.6846L4.2104 11.6846C3.37008 11.4259 2.45777 11.1235 1.75404 10.8851C1.40252 10.7661 1.10375 10.6633 0.892947 10.5903C0.787557 10.5538 0.704185 10.5247 0.647237 10.5048L0.632068 10.4995C0.616974 10.4867 0.599409 10.4706 0.581721 10.4519C0.52422 10.3912 0.503981 10.3445 0.500694 10.3223C0.49982 10.3164 0.499096 10.3079 0.505098 10.2907C0.511845 10.2714 0.531999 10.228 0.592372 10.1636C0.719446 10.028 0.992292 9.83349 1.53971 9.61424Z" stroke="#313131"/>
</svg>
