<svg width="16" height="16" viewBox="0 0 16 16" fill="none" xmlns="http://www.w3.org/2000/svg">
<path fill-rule="evenodd" clip-rule="evenodd" d="M15.8526 0.853553C16.0478 0.658291 16.0478 0.341709 15.8526 0.146447C15.6573 -0.0488155 15.3407 -0.0488155 15.1455 0.146447L7.99957 7.29235L0.853663 0.146447C0.658401 -0.0488155 0.341819 -0.0488155 0.146556 0.146447C-0.0487061 0.341709 -0.0487061 0.658291 0.146556 0.853553L7.29246 7.99946L0.146447 15.1455C-0.0488155 15.3407 -0.0488155 15.6573 0.146447 15.8526C0.341709 16.0478 0.658291 16.0478 0.853553 15.8526L7.99957 8.70657L15.1456 15.8526C15.3408 16.0478 15.6574 16.0478 15.8527 15.8526C16.048 15.6573 16.048 15.3407 15.8527 15.1455L8.70668 7.99946L15.8526 0.853553Z" fill="#313131"/>
</svg>
