<svg width="16" height="16" viewBox="0 0 16 16" fill="none" xmlns="http://www.w3.org/2000/svg">
<path fill-rule="evenodd" clip-rule="evenodd" d="M0 8.0002C0 3.58181 3.58181 0 8.0002 0C12.4186 0 16.0004 3.58181 16.0004 8.0002V12.773L16.0004 12.8573C16.0006 13.4523 16.0008 13.8586 15.8991 14.2048C15.6594 15.0211 15.0211 15.6594 14.2048 15.8991C13.8586 16.0008 13.4523 16.0006 12.8573 16.0004L12.773 16.0004H8.00019C3.58181 16.0004 0 12.4186 0 8.0002ZM8.0002 1C4.13409 1 1 4.13409 1 8.0002C1 11.8663 4.13409 15.0004 8.00019 15.0004H12.773C13.4849 15.0004 13.7335 14.9953 13.923 14.9396C14.4128 14.7958 14.7958 14.4128 14.9396 13.923C14.9953 13.7335 15.0004 13.4849 15.0004 12.773V8.0002C15.0004 4.13409 11.8663 1 8.0002 1ZM4.68734 7.06239C4.68734 6.78625 4.9112 6.56239 5.18734 6.56239H10.8125C11.0886 6.56239 11.3125 6.78625 11.3125 7.06239C11.3125 7.33853 11.0886 7.56239 10.8125 7.56239H5.18734C4.9112 7.56239 4.68734 7.33853 4.68734 7.06239ZM8.0001 10.3127C7.72395 10.3127 7.5001 10.5366 7.5001 10.8127C7.5001 11.0889 7.72395 11.3127 8.0001 11.3127H10.8127C11.0888 11.3127 11.3127 11.0889 11.3127 10.8127C11.3127 10.5366 11.0888 10.3127 10.8127 10.3127H8.0001Z" fill="#313131"/>
</svg>
