<svg width="65" height="49" viewBox="0 0 65 49" fill="none" xmlns="http://www.w3.org/2000/svg">
<path d="M32.0716 40.6768C41.5617 40.6768 49.2549 32.9835 49.2549 23.4934C49.2549 14.0033 41.5617 6.31006 32.0716 6.31006C22.5814 6.31006 14.8882 14.0033 14.8882 23.4934C14.8882 32.9835 22.5814 40.6768 32.0716 40.6768Z" fill="#FEFEFE"/>
<path d="M48.662 4.89038C49.0161 5.20622 49.3613 5.53169 49.697 5.86732C54.2069 10.3774 56.9976 16.6103 56.9976 23.4936C56.9976 30.3768 54.2069 36.6097 49.697 41.1197C46.4631 44.3541 42.3437 46.7035 37.7333 47.7742V45.9301C41.8474 44.8952 45.5238 42.7584 48.4296 39.8525C52.616 35.6662 55.206 29.8817 55.206 23.4936C55.206 17.2242 52.7116 11.5365 48.662 7.37048V4.89038ZM15.4801 7.37048C11.4305 11.5365 8.93609 17.2242 8.93609 23.4936C8.93609 29.8817 11.5261 35.6662 15.7118 39.8525C18.5563 42.6968 22.1382 44.8032 26.146 45.8626V47.7116C21.6419 46.6133 17.6169 44.292 14.4446 41.1197C9.93457 36.6091 7.14453 30.3768 7.14453 23.4936C7.14453 16.6103 9.93523 10.3774 14.4451 5.86732C14.7808 5.5317 15.1266 5.20623 15.4801 4.89038V7.37048H15.4801Z" fill="#FEFEFE"/>
<path fill-rule="evenodd" clip-rule="evenodd" d="M14.4133 6.41466C14.6056 5.72309 14.9556 4.59205 15.6023 3.62036C16.2496 2.64877 17.1933 1.8372 18.175 1.29436C19.1574 0.750867 20.178 0.476229 20.8636 0.295245C21.5497 0.11426 21.9009 0.0265074 22.0818 0.00442748C22.2628 -0.0176525 22.2742 0.0265074 22.1863 0.520378C22.0986 1.0136 21.9117 1.95785 21.6978 2.76999C21.484 3.58157 21.2422 4.26178 20.6169 4.88768C19.9917 5.51292 18.9819 6.0832 18.0765 6.46188C17.1717 6.84046 16.3703 7.02745 15.7337 7.2304C15.0976 7.43291 14.6259 7.6527 14.39 7.71838C14.1541 7.78406 14.1541 7.6963 14.1708 7.52668C14.1876 7.35707 14.2215 7.1056 14.4132 6.41466H14.4133Z" fill="#8A631F"/>
<path fill-rule="evenodd" clip-rule="evenodd" d="M8.82323 12.3789C8.47428 11.7888 7.92707 10.7994 7.68597 9.71121C7.4452 8.62247 7.51077 7.43581 7.78662 6.40052C8.06247 5.36458 8.54858 4.47999 8.87765 3.88819C9.20705 3.29595 9.37896 2.99617 9.48344 2.85693C9.58803 2.7177 9.62596 2.73912 9.90792 3.12633C10.1894 3.51321 10.7159 4.26665 11.1337 4.95124C11.5511 5.63549 11.8594 6.25211 11.8767 7.0968C11.8934 7.94106 11.618 9.01373 11.2796 9.88772C10.9416 10.7612 10.54 11.4367 10.2586 12.0095C9.97721 12.5814 9.81634 13.0516 9.70552 13.2575C9.59459 13.4633 9.53416 13.4053 9.42847 13.2816C9.32279 13.1579 9.17219 12.968 8.82322 12.3789H8.82323Z" fill="#8A631F"/>
<path fill-rule="evenodd" clip-rule="evenodd" d="M6.74562 21.5047C6.14301 21.1782 5.16487 20.611 4.39843 19.8016C3.6322 18.9916 3.07822 17.9401 2.78248 16.9104C2.48631 15.8801 2.44849 14.8714 2.42631 14.1946C2.40434 13.5173 2.39756 13.1718 2.41571 12.9985C2.43375 12.8254 2.47724 12.8243 2.91823 13.0114C3.35866 13.1984 4.19756 13.574 4.90794 13.9463C5.61778 14.3185 6.1993 14.6888 6.64837 15.4044C7.09689 16.1198 7.41219 17.1816 7.57142 18.1051C7.73077 19.028 7.73361 19.8139 7.78672 20.4498C7.83951 21.0851 7.94334 21.5711 7.95415 21.8046C7.96497 22.0383 7.88322 22.0195 7.72891 21.9678C7.57459 21.916 7.34781 21.8306 6.74563 21.5047L6.74562 21.5047Z" fill="#8A631F"/>
<path fill-rule="evenodd" clip-rule="evenodd" d="M7.92213 31.5684C7.23667 31.573 6.10629 31.5481 5.04454 31.2088C3.9827 30.869 2.99013 30.2152 2.23428 29.4558C1.47778 28.6962 0.958112 27.8309 0.612323 27.2488C0.266311 26.666 0.0936386 26.3666 0.0259876 26.2062C-0.0417746 26.0459 -0.00417091 26.0238 0.47232 25.9751C0.948378 25.9264 1.86433 25.8506 2.66619 25.8341C3.4675 25.8177 4.15558 25.8616 4.89415 26.2717C5.63218 26.6821 6.42048 27.46 7.0055 28.1921C7.5903 28.9237 7.97194 29.6107 8.32528 30.1421C8.67784 30.6731 9.00331 31.0487 9.12538 31.2482C9.24757 31.4475 9.1669 31.4706 9.0068 31.4997C8.84669 31.5287 8.60691 31.5634 7.9221 31.5684L7.92213 31.5684Z" fill="#8A631F"/>
<path fill-rule="evenodd" clip-rule="evenodd" d="M13.7348 41.4418C13.0723 41.6178 11.9716 41.8764 10.8587 41.8134C9.74563 41.75 8.62104 41.3652 7.69941 40.8191C6.77689 40.2728 6.05722 39.565 5.5768 39.088C5.09604 38.6103 4.85407 38.3635 4.74839 38.2253C4.64271 38.0869 4.67363 38.0562 5.12281 37.8897C5.57144 37.7235 6.43942 37.421 7.21165 37.2045C7.98333 36.9882 8.66049 36.8586 9.47819 37.0709C10.2955 37.2836 11.2533 37.8397 12.0028 38.4022C12.7519 38.9643 13.2934 39.534 13.7683 39.9601C14.2425 40.386 14.6516 40.6683 14.8197 40.8308C14.9879 40.9933 14.9155 41.0357 14.7678 41.1041C14.62 41.1722 14.3965 41.2658 13.7348 41.4419L13.7348 41.4418Z" fill="#8A631F"/>
<path fill-rule="evenodd" clip-rule="evenodd" d="M22.8934 46.8666C22.3771 47.3175 21.5044 48.0365 20.4786 48.4725C19.4523 48.9082 18.2736 49.0608 17.2054 48.9789C16.1365 48.8972 15.1779 48.5809 14.5359 48.3656C13.8935 48.15 13.5672 48.0359 13.4112 47.9585C13.2553 47.8812 13.2694 47.84 13.5985 47.492C13.9274 47.1444 14.5719 46.4891 15.1686 45.9532C15.765 45.4177 16.3148 45.0019 17.142 44.8305C17.969 44.6596 19.074 44.7344 19.9951 44.9071C20.9157 45.0797 21.6532 45.351 22.2677 45.523C22.8814 45.6951 23.3732 45.7673 23.5959 45.8386C23.8186 45.91 23.7725 45.9799 23.6702 46.1066C23.5679 46.2332 23.4088 46.4159 22.8933 46.8666H22.8934Z" fill="#8A631F"/>
<path fill-rule="evenodd" clip-rule="evenodd" d="M49.7541 6.41466C49.5618 5.72309 49.2118 4.59205 48.5651 3.62036C47.9178 2.64877 46.9742 1.8372 45.9924 1.29436C45.01 0.750867 43.9894 0.476229 43.3038 0.295245C42.6177 0.11426 42.2666 0.0265074 42.0856 0.00442748C41.9046 -0.0176525 41.8932 0.0265074 41.9811 0.520378C42.0689 1.0136 42.2557 1.95785 42.4696 2.76999C42.6834 3.58157 42.9252 4.26178 43.5505 4.88768C44.1757 5.51292 45.1856 6.0832 46.0909 6.46188C46.9957 6.84046 47.7971 7.02745 48.4337 7.2304C49.0698 7.43291 49.5415 7.6527 49.7774 7.71838C50.0133 7.78406 50.0133 7.6963 49.9966 7.52668C49.9798 7.35707 49.9459 7.1056 49.7542 6.41466H49.7541Z" fill="#8A631F"/>
<path fill-rule="evenodd" clip-rule="evenodd" d="M55.3437 12.3789C55.6927 11.7888 56.24 10.7994 56.481 9.71121C56.7217 8.62247 56.6562 7.43581 56.3803 6.40052C56.1046 5.36458 55.6183 4.47999 55.2893 3.88819C54.9599 3.29595 54.788 2.99617 54.6835 2.85693C54.5789 2.7177 54.541 2.73912 54.259 3.12633C53.9775 3.51321 53.451 4.26665 53.0332 4.95124C52.6159 5.63549 52.3075 6.25211 52.2903 7.0968C52.2736 7.94106 52.549 9.01373 52.8873 9.88772C53.2254 10.7612 53.6269 11.4367 53.9083 12.0095C54.1897 12.5814 54.3506 13.0516 54.4614 13.2575C54.5723 13.4633 54.6328 13.4053 54.7385 13.2816C54.8442 13.1579 54.9948 12.968 55.3437 12.3789H55.3437Z" fill="#8A631F"/>
<path fill-rule="evenodd" clip-rule="evenodd" d="M57.4214 21.5047C58.024 21.1782 59.0021 20.611 59.7686 19.8016C60.5348 18.9916 61.0888 17.9401 61.3845 16.9104C61.6807 15.8801 61.7186 14.8714 61.7407 14.1946C61.7626 13.5173 61.7694 13.1718 61.7514 12.9985C61.7332 12.8254 61.6897 12.8243 61.2488 13.0114C60.8083 13.1984 59.9694 13.574 59.2591 13.9463C58.5492 14.3185 57.9677 14.6888 57.5186 15.4044C57.0701 16.1198 56.7548 17.1816 56.5956 18.1051C56.4362 19.028 56.4334 19.8139 56.3803 20.4498C56.3275 21.0851 56.2237 21.5711 56.2128 21.8046C56.2021 22.0383 56.2838 22.0195 56.4381 21.9678C56.5924 21.916 56.8192 21.8306 57.4214 21.5047V21.5047Z" fill="#8A631F"/>
<path fill-rule="evenodd" clip-rule="evenodd" d="M56.2448 31.5684C56.9303 31.573 58.0606 31.5481 59.1224 31.2088C60.1842 30.869 61.1768 30.2152 61.9327 29.4558C62.6892 28.6962 63.2088 27.8309 63.5547 27.2488C63.9006 26.666 64.0733 26.3666 64.1411 26.2062C64.2087 26.0459 64.1711 26.0238 63.6946 25.9751C63.2186 25.9264 62.3026 25.8506 61.5008 25.8341C60.6994 25.8177 60.0114 25.8616 59.2728 26.2717C58.5348 26.6821 57.7465 27.46 57.1614 28.1921C56.5766 28.9237 56.195 29.6107 55.8417 30.1421C55.4891 30.6731 55.1636 31.0487 55.0416 31.2482C54.9194 31.4475 55 31.4706 55.1601 31.4997C55.3202 31.5287 55.56 31.5634 56.2448 31.5684L56.2448 31.5684Z" fill="#8A631F"/>
<path fill-rule="evenodd" clip-rule="evenodd" d="M50.4323 41.4418C51.0948 41.6178 52.1955 41.8764 53.3084 41.8134C54.4215 41.75 55.5461 41.3652 56.4677 40.8191C57.3902 40.2728 58.1099 39.565 58.5903 39.088C59.0711 38.6103 59.313 38.3635 59.4187 38.2253C59.5244 38.0869 59.4935 38.0562 59.0443 37.8897C58.5956 37.7235 57.7277 37.421 56.9554 37.2045C56.1838 36.9882 55.5066 36.8586 54.6889 37.0709C53.8717 37.2836 52.9138 37.8397 52.1643 38.4022C51.4151 38.9643 50.8737 39.534 50.3988 39.9601C49.9246 40.386 49.5155 40.6683 49.3474 40.8308C49.1793 40.9933 49.2516 41.0357 49.3993 41.1041C49.5471 41.1722 49.7706 41.2658 50.4323 41.4419L50.4323 41.4418Z" fill="#8A631F"/>
<path fill-rule="evenodd" clip-rule="evenodd" d="M41.2734 46.8666C41.7897 47.3175 42.6624 48.0365 43.6881 48.4725C44.7145 48.9082 45.8931 49.0608 46.9613 48.9789C48.0303 48.8972 48.9889 48.5809 49.6308 48.3656C50.2733 48.15 50.5996 48.0359 50.7555 47.9585C50.9115 47.8812 50.8974 47.84 50.5682 47.492C50.2394 47.1444 49.5949 46.4891 48.9982 45.9532C48.4018 45.4177 47.8519 45.0019 47.0247 44.8305C46.1977 44.6596 45.0927 44.7344 44.1716 44.9071C43.2511 45.0797 42.5135 45.351 41.8991 45.523C41.2853 45.6951 40.7936 45.7673 40.5709 45.8386C40.3482 45.91 40.3943 45.9799 40.4966 46.1066C40.5989 46.2332 40.758 46.4159 41.2734 46.8666H41.2734Z" fill="#8A631F"/>
<path fill-rule="evenodd" clip-rule="evenodd" d="M22.9028 20.4992C22.9821 21.6455 23.1404 22.865 23.5247 24.4566C23.909 26.0479 24.5186 28.0115 25.0981 29.5848C25.6774 31.1578 26.226 32.3406 26.7079 33.1028C27.1894 33.8651 27.6042 34.2066 27.9579 34.3469C28.3114 34.4871 28.6042 34.4263 28.8726 33.8654C29.1408 33.3043 29.3846 32.243 29.6285 31.249C29.8725 30.2552 30.1161 29.3286 30.348 28.6762C30.5797 28.0237 30.799 27.6455 31.0794 27.4138C31.3077 27.2253 31.5766 27.1338 31.8394 27.1058C32.1022 27.1338 32.371 27.2254 32.5993 27.4138C32.8798 27.6454 33.0991 28.0237 33.3308 28.6762C33.5627 29.3286 33.8063 30.2552 34.0502 31.249C34.2942 32.243 34.5381 33.3043 34.8062 33.8654C35.0747 34.4263 35.3674 34.4871 35.7208 34.3469C36.0746 34.2066 36.4894 33.8651 36.9709 33.1028C37.4527 32.3406 38.0014 31.1578 38.5807 29.5848C39.1602 28.0115 39.7698 26.0479 40.1541 24.4566C40.5384 22.865 40.6966 21.6455 40.776 20.4992C40.8553 19.3526 40.8553 18.2797 40.7395 17.3468C40.6236 16.4137 40.3917 15.6213 39.9586 15.0053C39.5258 14.3894 38.8921 13.9503 38.154 13.6882C37.4162 13.426 36.575 13.3404 35.8553 13.4077C35.1357 13.4747 34.5384 13.6941 33.9284 13.938C33.3188 14.1819 32.6966 14.4505 32.0809 14.5725C32.0003 14.5885 31.9196 14.602 31.8394 14.6131C31.7591 14.602 31.6784 14.5885 31.5978 14.5725C30.9822 14.4504 30.36 14.1819 29.7504 13.938C29.1404 13.6941 28.543 13.4747 27.8236 13.4077C27.1037 13.3404 26.2625 13.426 25.5248 13.6882C24.7867 13.9503 24.1529 14.3894 23.7201 15.0053C23.287 15.6213 23.0551 16.4137 22.9393 17.3468C22.8234 18.2797 22.8234 19.3526 22.9028 20.4992H22.9028Z" fill="#262F33"/>
</svg>
