<svg width="47" height="41" viewBox="0 0 47 41" fill="none" xmlns="http://www.w3.org/2000/svg">
<path d="M13.6082 15.0332H2.57051C1.54862 15.0332 0.720215 15.8616 0.720215 16.8835V37.9722C0.720215 38.9941 1.54862 39.8225 2.57051 39.8225H13.6082C14.6301 39.8225 15.4585 38.9941 15.4585 37.9722V16.8835C15.4585 15.8616 14.6301 15.0332 13.6082 15.0332Z" fill="#262F33"/>
<path d="M10.1713 21.2617C11.3548 21.2617 12.3142 20.3023 12.3142 19.1188C12.3142 17.9352 11.3548 16.9758 10.1713 16.9758C8.98775 16.9758 8.02832 17.9352 8.02832 19.1188C8.02832 20.3023 8.98775 21.2617 10.1713 21.2617Z" fill="#FFFFFE"/>
<path fill-rule="evenodd" clip-rule="evenodd" d="M15.4591 17.1447C16.4206 17.02 17.7229 16.8107 19.1178 16.4209C21.0296 15.8862 23.1155 15.013 24.8937 13.929C26.6719 12.8445 28.1413 11.5489 29.3075 10.167C30.4743 8.78482 31.338 7.31477 31.9336 6.00472C32.5298 4.69419 32.8588 3.54304 33.0332 2.56137C33.2084 1.5797 33.2284 0.767997 33.2849 0.361986C33.3413 -0.0440251 33.4343 -0.0440251 33.8811 0.0538413C34.328 0.151233 35.1301 0.346966 35.9059 0.84531C36.6817 1.34365 37.4324 2.14524 37.9051 3.199C38.3777 4.25229 38.573 5.55728 38.4493 6.99144C38.3263 8.42497 37.8844 9.98672 37.499 11.1227C37.1135 12.2582 36.7847 12.9675 36.4093 13.5638C36.0972 14.0604 35.7521 14.4783 35.4261 14.9404H34.6692C33.1416 14.9404 31.8931 16.1893 31.8931 17.716V18.4235C31.8931 19.7302 32.8065 20.8314 34.0275 21.1229L34.0152 21.2772C32.8008 21.5726 31.8929 22.6711 31.8929 23.9732V24.6809C31.8929 25.8332 32.6038 26.8265 33.6096 27.2449L33.5821 27.6795C32.591 28.1047 31.8929 29.0901 31.8929 30.2318V30.9393C31.8929 31.9267 32.4148 32.7975 33.1967 33.2892L33.129 34.1836C32.3845 34.6826 31.8928 35.8393 31.8928 36.7974V37.5049C31.8928 38.3669 32.2915 39.1416 32.9141 39.6516L32.9146 39.7662C32.9179 40.49 32.9303 40.5119 32.8017 40.6965C32.673 40.881 32.4061 40.9225 31.2551 40.9583C30.104 40.9942 28.069 41.0255 26.6606 40.9689C25.2529 40.9125 24.4718 40.7681 23.6442 40.4342C22.8168 40.1003 21.9438 39.576 20.7719 38.934C19.6005 38.2913 18.1306 37.5311 16.9693 37.0793C16.3998 36.8571 15.9043 36.7095 15.4585 36.6021V17.1446L15.4591 17.1447Z" fill="#8A631F"/>
<path d="M44.2878 15.7428H34.8834C33.8788 15.7428 33.0645 16.6669 33.0645 17.8068V18.3319C33.0645 19.4718 33.8788 20.3959 34.8834 20.3959H44.2878C45.2924 20.3959 46.1068 19.4718 46.1068 18.3319V17.8068C46.1068 16.6669 45.2924 15.7428 44.2878 15.7428Z" fill="#8A631F"/>
<path d="M44.0226 22.0007H34.8404C33.8596 22.0007 33.0645 22.925 33.0645 24.0651V24.59C33.0645 25.7301 33.8596 26.6543 34.8404 26.6543H44.0226C45.0035 26.6543 45.7986 25.7301 45.7986 24.59V24.0651C45.7986 22.925 45.0035 22.0007 44.0226 22.0007Z" fill="#8A631F"/>
<path d="M43.5958 28.2587H34.3427C33.6368 28.2587 33.0645 28.976 33.0645 29.8609V31.3101C33.0645 32.195 33.6368 32.9123 34.3427 32.9123H43.5958C44.3017 32.9123 44.874 32.195 44.874 31.3101V29.8609C44.874 28.976 44.3017 28.2587 43.5958 28.2587Z" fill="#8A631F"/>
<path d="M42.5023 34.5166H34.2335C33.5878 34.5166 33.0645 35.2471 33.0645 36.1481V37.539C33.0645 38.44 33.5878 39.1704 34.2335 39.1704H42.5023C43.1479 39.1704 43.6713 38.44 43.6713 37.539V36.1481C43.6713 35.2471 43.1479 34.5166 42.5023 34.5166Z" fill="#8A631F"/>
</svg>
