<svg width="37" height="47" viewBox="0 0 37 47" fill="none" xmlns="http://www.w3.org/2000/svg">
<path d="M18.7588 46.9898C26.7381 46.9898 33.2066 46.0367 33.2066 44.8611C33.2066 43.6854 26.7381 42.7323 18.7588 42.7323C10.7795 42.7323 4.31104 43.6854 4.31104 44.8611C4.31104 46.0367 10.7795 46.9898 18.7588 46.9898Z" fill="#262F33"/>
<path fill-rule="evenodd" clip-rule="evenodd" d="M18.4135 0C28.142 0 36.0284 7.88649 36.0284 17.6147C36.0284 24.1423 31.8849 29.5244 28.1834 34.5692C26.4496 36.932 25.013 38.6345 23.8247 39.9741C22.6357 41.3131 21.6959 42.2891 20.9511 43.043C20.2058 43.7966 19.6561 44.3289 19.2395 44.5949C18.9426 44.7841 18.7134 44.8386 18.4938 44.8001C18.2741 44.8388 18.0444 44.7843 17.7476 44.5949C17.331 44.3289 16.7812 43.7966 16.0359 43.043C15.291 42.2891 14.3512 41.3131 13.1623 39.9741C11.9739 38.6346 10.5374 36.932 8.80356 34.5692C5.05965 29.4675 0.798828 24.2528 0.798828 17.6147C0.798828 7.88636 8.68532 0 18.4135 0Z" fill="#8A631F"/>
<path fill-rule="evenodd" clip-rule="evenodd" d="M8.55669 15.3096C8.6435 16.5629 8.81648 17.8963 9.23671 19.6364C9.65681 21.3763 10.3234 23.5233 10.9569 25.2435C11.5904 26.9633 12.1902 28.2565 12.7171 29.09C13.2436 29.9235 13.6971 30.2968 14.084 30.4503C14.4705 30.6034 14.7904 30.537 15.084 29.9239C15.3773 29.3103 15.6439 28.15 15.9105 27.0631C16.1772 25.9765 16.4436 24.9634 16.6971 24.2499C16.9503 23.5366 17.1902 23.1229 17.4968 22.8696C17.7464 22.6636 18.0403 22.5634 18.3277 22.5329C18.6152 22.5633 18.909 22.6634 19.1587 22.8696C19.4652 23.1228 19.7051 23.5366 19.9583 24.2499C20.2119 24.9633 20.4783 25.9763 20.7449 27.0631C21.0116 28.1498 21.2783 29.3103 21.5715 29.9239C21.865 30.537 22.1851 30.6034 22.5715 30.4503C22.9582 30.2968 23.4118 29.9235 23.9383 29.09C24.4651 28.2565 25.0649 26.9633 25.6986 25.2435C26.3321 23.5231 26.9987 21.3763 27.4188 19.6364C27.839 17.8963 28.012 16.5628 28.0988 15.3096C28.1856 14.056 28.1856 12.8829 28.0589 11.863C27.9321 10.8427 27.6786 9.97613 27.2051 9.3027C26.732 8.62927 26.0388 8.14923 25.232 7.8627C24.4254 7.57604 23.5056 7.48239 22.7186 7.55615C21.9319 7.6294 21.2788 7.86929 20.6119 8.13605C19.9454 8.40269 19.265 8.69631 18.592 8.82976C18.5038 8.84712 18.4157 8.86207 18.3279 8.87398C18.24 8.86207 18.1518 8.84712 18.0636 8.82976C17.3906 8.69631 16.7102 8.40269 16.0437 8.13605C15.3768 7.86942 14.7237 7.6294 13.937 7.55615C13.1499 7.48252 12.2301 7.57617 11.4236 7.8627C10.6166 8.14936 9.92357 8.6294 9.4505 9.3027C8.97705 9.97613 8.72334 10.8427 8.59674 11.863C8.47014 12.8829 8.47014 14.056 8.55682 15.3096H8.55669Z" fill="#FFFFFE"/>
</svg>
