<svg width="41" height="62" viewBox="0 0 41 62" fill="none" xmlns="http://www.w3.org/2000/svg">
<g clip-path="url(#clip0_1_461)">
<path d="M35.0162 19.1628H5.51465V24.5105H35.0162V19.1628Z" fill="#8A631F"/>
<path fill-rule="evenodd" clip-rule="evenodd" d="M0.285156 4.04068L10.6822 12.9754L20.2797 0L29.6978 12.9533L40.542 4.04068L35.0159 17.4101H5.51443L0.285156 4.04068Z" fill="#8A631F"/>
<path fill-rule="evenodd" clip-rule="evenodd" d="M5.4633 38.6841C5.59213 40.5457 5.84914 42.5265 6.47334 45.1114C7.09742 47.6959 8.08752 50.885 9.02855 53.4404C9.96958 55.9952 10.8606 57.9161 11.6432 59.1541C12.4252 60.392 13.0989 60.9467 13.6735 61.1747C14.2476 61.4021 14.7229 61.3036 15.159 60.3927C15.5944 59.4813 15.9906 57.7576 16.3868 56.1434C16.7829 54.5291 17.1785 53.0244 17.5552 51.9647C17.9314 50.9051 18.2876 50.2906 18.7431 49.9144C19.1139 49.6083 19.5505 49.4594 19.9774 49.4141C20.4043 49.4594 20.8409 49.6083 21.2116 49.9144C21.6671 50.2906 22.0234 50.9051 22.3995 51.9647C22.7762 53.0244 23.1719 54.5291 23.5681 56.1434C23.9641 57.7577 24.3603 59.4813 24.7957 60.3927C25.2318 61.3036 25.7073 61.4021 26.2812 61.1747C26.8558 60.9467 27.5295 60.392 28.3115 59.1541C29.0942 57.9161 29.9851 55.9952 30.9262 53.4404C31.8672 50.8852 32.8573 47.6959 33.4814 45.1114C34.1056 42.5265 34.3627 40.5459 34.4915 38.6841C34.6204 36.822 34.6204 35.0794 34.4322 33.5644C34.2441 32.0488 33.8673 30.7616 33.164 29.7614C32.4611 28.7611 31.4318 28.048 30.2331 27.6222C29.0349 27.1964 27.6686 27.0573 26.4995 27.1667C25.3311 27.2756 24.3608 27.6319 23.3702 28.028C22.3801 28.4242 21.3696 28.8602 20.3697 29.0585C20.2388 29.0844 20.1078 29.1064 19.9774 29.1242C19.847 29.1064 19.716 29.0844 19.585 29.0585C18.5852 28.8602 17.5746 28.4242 16.5845 28.028C15.5939 27.6319 14.6237 27.2756 13.4552 27.1667C12.2862 27.0573 10.9199 27.1964 9.72163 27.6222C8.52307 28.048 7.49362 28.7611 6.79069 29.7614C6.08738 30.7616 5.7106 32.0488 5.5226 33.5644C5.33447 35.0794 5.33447 36.822 5.4633 38.6841Z" fill="#262F33"/>
</g>
<defs>
<clipPath id="clip0_1_461">
<rect width="40.2569" height="61.2785" fill="white" transform="translate(0.285156)"/>
</clipPath>
</defs>
</svg>
