<svg width="36" height="65" viewBox="0 0 36 65" fill="none" xmlns="http://www.w3.org/2000/svg">
<path fill-rule="evenodd" clip-rule="evenodd" d="M9.19775 0C13.7472 0 17.4351 3.68792 17.4351 8.23736C17.4351 12.5454 14.1282 16.0802 9.91477 16.4433V22.732H8.25074V16.4201C4.14776 15.9503 0.960938 12.4659 0.960938 8.23736C0.960938 3.68792 4.64886 0 9.19829 0H9.19775Z" fill="#262F33"/>
<path fill-rule="evenodd" clip-rule="evenodd" d="M6.55147 22.7315H11.5771L11.9088 29.9888H6.20892L6.55201 22.7315H6.55147ZM12.0701 33.5166L13.5079 65H4.55518L6.04225 33.5166H12.0701Z" fill="#8A631F"/>
<path d="M35.8666 22.8019H28.3457V42.8373H35.8666V22.8019Z" fill="#8A631F"/>
<path d="M35.8666 44.9645H28.3457V65H35.8666V44.9645Z" fill="#8A631F"/>
<path fill-rule="evenodd" clip-rule="evenodd" d="M31.1393 22.8018V16.2831L24.5156 8.4619L31.9028 0.141747H34.2487L27.0931 8.32878L33.2676 15.6841V22.8018H31.1393Z" fill="#262F33"/>
</svg>
