<svg width="67" height="44" viewBox="0 0 67 44" fill="none" xmlns="http://www.w3.org/2000/svg">
<path fill-rule="evenodd" clip-rule="evenodd" d="M15.4165 6.48798L17.0803 22.4538L53.6356 43.4128L66.8272 21.4058L30.5186 0.323883L15.4165 6.48798Z" fill="#8A631F"/>
<path d="M22.7832 14.1937C24.5875 14.1937 26.0503 12.7309 26.0503 10.9266C26.0503 9.12223 24.5875 7.65952 22.7832 7.65952C20.9788 7.65952 19.5161 9.12223 19.5161 10.9266C19.5161 12.7309 20.9788 14.1937 22.7832 14.1937Z" fill="#262F33"/>
<path d="M22.7829 13.2695C24.0768 13.2695 25.1258 12.2205 25.1258 10.9265C25.1258 9.63258 24.0768 8.58362 22.7829 8.58362C21.4889 8.58362 20.4399 9.63258 20.4399 10.9265C20.4399 12.2205 21.4889 13.2695 22.7829 13.2695Z" fill="#FFFFFE"/>
<path d="M23.0753 11.403C22.8125 11.5641 22.4674 11.4819 22.3063 11.2192C22.1454 10.9562 22.2276 10.6113 22.4903 10.4502C22.9901 10.113 23.4858 9.77695 23.8356 9.36224C24.013 9.14958 24.1632 8.90979 24.27 8.64878C24.368 8.40997 24.4321 8.14674 24.4496 7.86649C24.4691 7.55737 24.4351 7.22284 24.3312 6.86735C24.2311 6.52394 24.0655 6.15561 23.8235 5.76459C23.5524 5.3262 23.1833 4.85993 22.723 4.40353C22.3053 3.98932 21.8114 3.58374 21.2462 3.2164C20.6356 2.81946 19.935 2.46273 19.1495 2.16175C18.3924 1.87163 17.5615 1.63406 16.664 1.46334C15.7418 1.28769 14.7439 1.17865 13.7272 1.13621C12.68 1.09255 11.613 1.11722 10.5887 1.20776C9.59004 1.29608 8.61754 1.451 7.704 1.6607C6.78652 1.87139 5.93688 2.13758 5.18394 2.44793C4.46086 2.74594 3.82338 3.08763 3.28163 3.45151C2.72704 3.82452 2.27237 4.22319 1.93069 4.62532C1.61811 4.99266 1.40176 5.36 1.27273 5.72067C1.14247 6.09073 1.09659 6.46275 1.12693 6.82837C1.15703 7.19225 1.2599 7.55367 1.42643 7.90078C1.60159 8.2659 1.851 8.62436 2.16234 8.9616L2.188 8.9912C2.49218 9.31487 2.86001 9.62128 3.31246 9.91313L3.3359 9.92941C3.80784 10.2319 4.3681 10.5175 5.03814 10.7916C5.72521 11.0724 6.54154 11.3452 7.40179 11.5863C8.25563 11.8251 9.15017 12.0318 10.0001 12.1801C10.7342 12.3081 11.4405 12.3947 12.0842 12.4512C12.9124 12.5227 13.636 12.5457 14.1878 12.5457C15.1389 12.5479 15.5701 12.4778 15.9989 12.4088L16.0184 12.4061L16.0329 12.4043L16.1486 13.5147C15.6833 13.588 15.2087 13.6613 14.1876 13.6618C13.6118 13.664 12.8551 13.6401 11.9877 13.5651C11.3207 13.5068 10.5833 13.4158 9.80763 13.2804C8.92567 13.1267 7.99363 12.9108 7.09958 12.6606C6.21713 12.4135 5.36182 12.126 4.6185 11.8224C3.87889 11.5194 3.25646 11.2029 2.73197 10.8656L2.70952 10.8523C2.18232 10.5124 1.74566 10.146 1.37363 9.74956L1.34131 9.71725C0.95942 9.30402 0.647836 8.8533 0.422104 8.38136C0.194645 7.90645 0.053531 7.41404 0.0128252 6.91965C-0.0303476 6.39738 0.0345349 5.86894 0.221782 5.34495C0.39842 4.85623 0.680401 4.37196 1.07858 3.90347C1.48342 3.42709 2.0158 2.95909 2.66092 2.52515C3.26189 2.12105 3.96598 1.74409 4.76011 1.41647C5.57423 1.08095 6.48283 0.795765 7.45483 0.572006C8.40365 0.353922 9.42697 0.192332 10.4927 0.097845C11.5698 0.00212466 12.6837 -0.0235323 13.7711 0.0216141C14.8441 0.0670073 15.8977 0.181477 16.87 0.36675C17.8439 0.55227 18.7387 0.806866 19.5467 1.11672C20.4018 1.44385 21.1727 1.83808 21.8538 2.28091C22.4869 2.69241 23.0405 3.14708 23.5095 3.61236C24.0317 4.13019 24.4556 4.668 24.7721 5.17916C25.0684 5.65777 25.2741 6.11861 25.4017 6.55699C25.5443 7.04522 25.5911 7.50581 25.5637 7.93655C25.5386 8.3409 25.4446 8.72205 25.3015 9.07212C25.1483 9.44686 24.9364 9.78608 24.6882 10.0809C24.2291 10.6231 23.6745 10.9989 23.1204 11.3731L23.0758 11.4027L23.0753 11.403Z" fill="#262F33"/>
<path d="M31.4733 28.465L42.4693 10.9018L47.0938 13.7971C49.242 15.1421 50.5606 16.5726 51.0496 18.0885C51.555 19.6147 51.2892 21.206 50.2522 22.8623C49.5541 23.9774 48.6993 24.7776 47.6878 25.2629C46.6866 25.7317 45.5524 25.8662 44.2851 25.6663C43.0343 25.4766 41.6791 24.9249 40.2196 24.0112L38.1533 22.7175L33.6872 29.851L31.4733 28.465ZM31.4278 23.7798L32.4288 22.1809L40.8414 27.4479L39.8404 29.0468L31.4278 23.7798ZM33.7994 19.9916L34.9699 18.1222L40.6029 21.6489L39.4324 23.5184L33.7994 19.9916ZM41.0702 21.9415C42.0706 22.5678 42.9819 22.9899 43.8041 23.208C44.6427 23.4363 45.4046 23.4225 46.0898 23.1667C46.775 22.9109 47.3845 22.3566 47.9184 21.5038C48.6165 20.3887 48.7907 19.345 48.4407 18.3726C48.0908 17.4002 47.186 16.4571 45.7265 15.5434L43.5127 14.1573L39.3238 20.8481L41.0702 21.9415Z" fill="#FFFFFE"/>
</svg>
