<svg width="45" height="39" viewBox="0 0 45 39" fill="none" xmlns="http://www.w3.org/2000/svg">
<path fill-rule="evenodd" clip-rule="evenodd" d="M9.74843 0C15.0454 0 19.3401 4.29472 19.3401 9.59169C19.3401 14.8887 15.0454 19.1834 9.74843 19.1834C4.45132 19.1834 0.156738 14.8887 0.156738 9.59169C0.156738 4.29472 4.45132 0 9.74843 0ZM9.74843 3.88401C12.9003 3.88401 15.456 6.43974 15.456 9.59169C15.456 12.7436 12.9003 15.2992 9.74843 15.2992C6.59648 15.2992 4.04075 12.7436 4.04075 9.59169C4.04075 6.43974 6.59648 3.88401 9.74843 3.88401Z" fill="#262F33"/>
<path fill-rule="evenodd" clip-rule="evenodd" d="M35.0795 19.6573C40.3766 19.6573 44.6712 23.952 44.6712 29.249C44.6712 34.5459 40.3766 38.8407 35.0795 38.8407C29.7825 38.8407 25.4878 34.5459 25.4878 29.249C25.4878 23.952 29.7825 19.6573 35.0795 19.6573ZM35.0795 23.5413C38.2314 23.5413 40.7872 26.097 40.7872 29.249C40.7872 32.4008 38.2314 34.9565 35.0795 34.9565C31.9277 34.9565 29.3719 32.4008 29.3719 29.249C29.3719 26.097 31.9277 23.5413 35.0795 23.5413Z" fill="#262F33"/>
<path fill-rule="evenodd" clip-rule="evenodd" d="M2.35107 38.6047C21.6503 26.752 18.8648 0.50246 40.8545 2.53315C24.886 9.96246 22.9216 42.966 2.35107 38.6047Z" fill="#8A631F"/>
</svg>
