<svg width="21" height="20" viewBox="0 0 21 20" fill="none" xmlns="http://www.w3.org/2000/svg">
<path d="M14.5088 14.825L15.6219 13.7L11.689 9.7V4.675H10.2049V10.3L14.5088 14.825ZM10.8728 20C9.52057 20 8.2426 19.7375 7.03883 19.2125C5.83506 18.6875 4.78382 17.9708 3.88512 17.0625C2.98642 16.1542 2.27735 15.0917 1.75791 13.875C1.23848 12.6583 0.97876 11.3667 0.97876 10C0.97876 8.63333 1.23848 7.34167 1.75791 6.125C2.27735 4.90833 2.98642 3.84583 3.88512 2.9375C4.78382 2.02917 5.83506 1.3125 7.03883 0.7875C8.2426 0.2625 9.52057 0 10.8728 0C12.2249 0 13.5029 0.2625 14.7067 0.7875C15.9104 1.3125 16.9617 2.02917 17.8604 2.9375C18.7591 3.84583 19.4682 4.90833 19.9876 6.125C20.507 7.34167 20.7667 8.63333 20.7667 10C20.7667 11.3667 20.507 12.6583 19.9876 13.875C19.4682 15.0917 18.7591 16.1542 17.8604 17.0625C16.9617 17.9708 15.9104 18.6875 14.7067 19.2125C13.5029 19.7375 12.2249 20 10.8728 20ZM10.8728 18.5C13.1814 18.5 15.1601 17.6667 16.8091 16C18.4581 14.3333 19.2826 12.3333 19.2826 10C19.2826 7.66667 18.4581 5.66667 16.8091 4C15.1601 2.33333 13.1814 1.5 10.8728 1.5C8.56415 1.5 6.58536 2.33333 4.93636 4C3.28736 5.66667 2.46286 7.66667 2.46286 10C2.46286 12.3333 3.28736 14.3333 4.93636 16C6.58536 17.6667 8.56415 18.5 10.8728 18.5Z" fill="#A27411"/>
</svg>
