<svg width="17" height="20" viewBox="0 0 17 20" fill="none" xmlns="http://www.w3.org/2000/svg">
<path d="M8.87271 9.75C9.35092 9.75 9.75905 9.57917 10.0971 9.2375C10.4351 8.89583 10.6042 8.48333 10.6042 8C10.6042 7.51667 10.4351 7.10417 10.0971 6.7625C9.75905 6.42083 9.35092 6.25 8.87271 6.25C8.3945 6.25 7.98638 6.42083 7.64833 6.7625C7.31029 7.10417 7.14126 7.51667 7.14126 8C7.14126 8.48333 7.31029 8.89583 7.64833 9.2375C7.98638 9.57917 8.3945 9.75 8.87271 9.75ZM8.87271 18.025C11.0659 16.0083 12.686 14.1792 13.7331 12.5375C14.7803 10.8958 15.3038 9.45 15.3038 8.2C15.3038 6.23333 14.6813 4.625 13.4363 3.375C12.1913 2.125 10.6701 1.5 8.87271 1.5C7.0753 1.5 5.5541 2.125 4.30911 3.375C3.06412 4.625 2.44162 6.23333 2.44162 8.2C2.44162 9.45 2.97754 10.8958 4.04939 12.5375C5.12124 14.1792 6.72901 16.0083 8.87271 18.025ZM8.87271 20C6.21783 17.7167 4.2349 15.5958 2.92395 13.6375C1.613 11.6792 0.95752 9.86667 0.95752 8.2C0.95752 5.7 1.75316 3.70833 3.34445 2.225C4.93573 0.741667 6.77849 0 8.87271 0C10.9669 0 12.8097 0.741667 14.401 2.225C15.9923 3.70833 16.7879 5.7 16.7879 8.2C16.7879 9.86667 16.1324 11.6792 14.8215 13.6375C13.5105 15.5958 11.5276 17.7167 8.87271 20Z" fill="#A27411"/>
</svg>
