<svg width="41" height="41" viewBox="0 0 41 41" fill="none" xmlns="http://www.w3.org/2000/svg">
<path fill-rule="evenodd" clip-rule="evenodd" d="M14.7768 0.916687H27.0562C38.263 0.916687 40.9165 3.57018 40.9165 14.777V27.0564C40.9165 38.2632 38.263 40.9167 27.0562 40.9167H14.7768C3.57 40.9167 0.916504 38.2632 0.916504 27.0564V14.777C0.916504 3.57018 3.57 0.916687 14.7768 0.916687Z" fill="#4680C2"/>
<path fill-rule="evenodd" clip-rule="evenodd" d="M33.6618 14.6923C33.8594 14.0712 33.6618 13.6196 32.7867 13.6196H29.8792C29.1452 13.6196 28.8065 14.0148 28.6089 14.4382C28.6089 14.4382 27.1128 18.0515 25.0239 20.3944C24.3464 21.0719 24.0359 21.2978 23.6689 21.2978C23.4713 21.2978 23.2172 21.0719 23.2172 20.4509V14.664C23.2172 13.9301 22.9914 13.5913 22.3704 13.5913H17.7973C17.3457 13.5913 17.0634 13.9301 17.0634 14.2688C17.0634 14.9745 18.1078 15.1439 18.2208 17.1199V21.4107C18.2208 22.3422 18.0514 22.5116 17.6844 22.5116C16.6964 22.5116 14.297 18.8701 12.8573 14.7205C12.575 13.9019 12.2927 13.5913 11.5588 13.5913H8.62301C7.77615 13.5913 7.63501 13.9865 7.63501 14.41C7.63501 15.1721 8.62301 19.0112 12.2363 24.0924C14.6357 27.5645 18.0514 29.4276 21.1283 29.4276C22.9914 29.4276 23.2172 29.0042 23.2172 28.2985V25.6732C23.2172 24.8263 23.3866 24.6852 23.9794 24.6852C24.4028 24.6852 25.165 24.911 26.8869 26.5765C28.863 28.5525 29.2017 29.4558 30.3026 29.4558H33.2102C34.057 29.4558 34.4522 29.0324 34.2264 28.2138C33.9723 27.3951 33.0126 26.2095 31.7705 24.7981C31.093 24.0077 30.0768 23.1326 29.7663 22.7092C29.3428 22.1446 29.4558 21.9188 29.7663 21.4107C29.738 21.4107 33.2948 16.386 33.6618 14.6923Z" fill="white"/>
</svg>
