<svg width="40" height="40" viewBox="0 0 40 40" fill="none" xmlns="http://www.w3.org/2000/svg">
<path d="M20 40C31.0457 40 40 31.0457 40 20C40 8.9543 31.0457 0 20 0C8.9543 0 0 8.9543 0 20C0 31.0457 8.9543 40 20 40Z" fill="#25D366"/>
<path fill-rule="evenodd" clip-rule="evenodd" d="M20.6593 31.1271H20.6544C18.664 31.1264 16.7083 30.627 14.9712 29.6796L8.66675 31.3333L10.3539 25.1707C9.31319 23.3671 8.76556 21.3212 8.76646 19.2252C8.76907 12.6681 14.1041 7.33334 20.6592 7.33334C23.8406 7.33472 26.8266 8.57323 29.0719 10.8212C31.3172 13.069 32.5531 16.057 32.5519 19.2346C32.5492 25.7902 27.2163 31.1244 20.6593 31.1271ZM15.2633 27.5266L15.6243 27.7408C17.1419 28.6414 18.8816 29.1179 20.6553 29.1186H20.6593C26.1075 29.1186 30.5417 24.6843 30.5439 19.2339C30.5449 16.5927 29.5177 14.1092 27.6515 12.2408C25.7852 10.3724 23.3034 9.34296 20.6632 9.34204C15.2109 9.34204 10.7766 13.7759 10.7744 19.2259C10.7736 21.0936 11.2962 22.9126 12.2857 24.4864L12.5207 24.8604L11.5222 28.508L15.2633 27.5266ZM26.2438 21.7951C26.451 21.8952 26.591 21.9629 26.6507 22.0626C26.725 22.1865 26.725 22.7815 26.4775 23.4757C26.2298 24.1698 25.0426 24.8033 24.4717 24.8886C23.9597 24.9652 23.3119 24.9971 22.6 24.7709C22.1684 24.6339 21.615 24.4511 20.906 24.1449C18.1202 22.942 16.2376 20.242 15.8818 19.7317C15.8569 19.696 15.8394 19.671 15.8297 19.658L15.8273 19.6548C15.67 19.4449 14.6163 18.039 14.6163 16.584C14.6163 15.2152 15.2887 14.4978 15.5982 14.1675C15.6194 14.1449 15.6389 14.1241 15.6564 14.105C15.9287 13.8075 16.2507 13.7331 16.4488 13.7331C16.6469 13.7331 16.8452 13.735 17.0183 13.7437C17.0397 13.7447 17.0619 13.7446 17.0849 13.7445C17.258 13.7435 17.4739 13.7422 17.6869 14.2538C17.7688 14.4506 17.8887 14.7425 18.0151 15.0503C18.2709 15.6728 18.5534 16.3606 18.6031 16.4602C18.6774 16.6089 18.7269 16.7824 18.6279 16.9808C18.613 17.0106 18.5992 17.0386 18.5861 17.0655C18.5117 17.2173 18.457 17.3291 18.3307 17.4765C18.2811 17.5345 18.2297 17.597 18.1784 17.6594C18.0762 17.7839 17.974 17.9084 17.885 17.9971C17.7362 18.1453 17.5813 18.3061 17.7547 18.6036C17.928 18.9011 18.5244 19.8741 19.4078 20.6621C20.3574 21.5091 21.1827 21.8671 21.6011 22.0485C21.6828 22.084 21.7489 22.1127 21.7975 22.137C22.0945 22.2858 22.2679 22.2609 22.4412 22.0626C22.6146 21.8643 23.1841 21.1949 23.3821 20.8974C23.5802 20.6001 23.7784 20.6496 24.0507 20.7487C24.3231 20.848 25.7841 21.5668 26.0812 21.7155C26.1393 21.7446 26.1935 21.7708 26.2438 21.7951Z" fill="#FDFDFD"/>
</svg>
