<svg id="logo" width="90" height="38" viewBox="0 0 90 38" fill="none" xmlns="http://www.w3.org/2000/svg">
<path fill-rule="evenodd" clip-rule="evenodd" d="M46.318 28.5851C44.9955 27.2369 43.3663 25.8997 41.4909 25.2943C46.4925 24.9577 49.0566 22.8339 49.0566 20.0681C49.0566 15.5425 43.0007 15.0303 39.61 15.0432C35.762 15.056 32.9646 15.2242 32.2758 15.2682H32.1123V15.281V34.746H35.8483V16.3474C36.7759 16.2102 38.08 16.073 39.6964 16.073C42.5746 16.073 45.2747 17.9151 45.2747 20.2053C45.2747 25.0693 39.1692 24.1693 37.6024 25.2302C41.2007 25.6674 44.9055 32.0844 47.488 35.1503C48.7976 36.7106 49.8832 37.885 51.551 37.9838C52.699 38.0533 53.97 37.9216 54.9931 37.1533C52.1167 37.1935 48.8693 31.1753 46.318 28.5851Z" fill="#3A4048"/>
<path fill-rule="evenodd" clip-rule="evenodd" d="M16.1157 14.9499C22.9614 14.9499 28.503 19.5065 28.503 25.1205C28.503 30.7399 22.9614 35.2966 16.1157 35.2966C9.27741 35.2966 3.73584 30.7399 3.73584 25.1205C3.73584 19.5065 9.27557 14.9499 16.1157 14.9499ZM16.1157 15.8736C20.8546 15.8736 24.6972 20.0132 24.6972 25.1187C24.6972 30.2314 20.8546 34.371 16.1157 34.371C11.3824 34.371 7.53981 30.2314 7.53981 25.1187C7.53981 20.0132 11.3824 15.8736 16.1157 15.8736Z" fill="#3A4048"/>
<path fill-rule="evenodd" clip-rule="evenodd" d="M63.9642 16.0986V34.746H60.2282V16.0986H59.0563C55.6087 16.0931 53.4523 16.2925 51.5586 17.659V15.2499C58.5788 15.2499 65.6063 15.2499 72.6338 15.2499V17.659C71.135 16.4169 68.5837 16.0913 65.1361 16.0986H63.9642Z" fill="#3A4048"/>
<path fill-rule="evenodd" clip-rule="evenodd" d="M87.7411 18.5645V16.2541C86.0807 15.356 83.4908 14.906 81.6614 14.8676C79.4352 14.8236 77.1355 15.2243 75.6239 16.3657C73.4859 17.9828 73.5612 20.8364 75.4292 22.6839C76.9959 24.226 79.6483 25.2943 81.9608 26.3735C84.4312 27.5223 86.4995 28.7022 86.4186 31.0125C86.369 32.4613 85.1953 33.3668 83.5294 33.8094C80.9909 34.4844 78.998 34.1094 76.6965 32.8729C75.2179 32.0735 74.1195 31.1991 74.1195 31.1991V33.5094C74.1195 33.5094 76.8343 35.0387 80.776 35.0826C83.0959 35.1082 85.8419 34.8009 87.2397 33.7838C90.3989 31.4863 90.0738 28.1644 88.1544 26.368C86.6005 24.901 84.299 23.9205 82.6624 23.2272C79.4719 21.7291 77.0639 20.4742 77.0639 18.6815C77.0639 16.8889 78.3699 15.806 81.3601 15.806C84.3504 15.806 87.7411 18.5645 87.7411 18.5645Z" fill="#3A4048"/>
<path fill-rule="evenodd" clip-rule="evenodd" d="M9.97556 9.90113C12.1962 12.3139 14.5914 14.0791 18.3917 12.4694C16.5145 12.2133 15.7173 11.7121 14.404 10.3511C12.2421 8.11761 10.5266 5.48533 8.41613 3.18779C6.19546 0.77501 3.8003 -0.990217 0 0.619522C1.88454 0.875617 2.67435 1.37683 3.98765 2.73048C6.15505 4.96582 7.8651 7.6036 9.97556 9.90113Z" fill="#A27413"/>
</svg>
