<svg version="1.1" xmlns="http://www.w3.org/2000/svg" xmlns:xlink="http://www.w3.org/1999/xlink">

<symbol id="logo2" width="90" height="38" viewBox="0 0 90 38" fill="none" xmlns="http://www.w3.org/2000/svg">
<path fill-rule="evenodd" clip-rule="evenodd" d="M46.318 28.5851C44.9955 27.2369 43.3663 25.8997 41.4909 25.2943C46.4925 24.9577 49.0566 22.8339 49.0566 20.0681C49.0566 15.5425 43.0007 15.0303 39.61 15.0432C35.762 15.056 32.9646 15.2242 32.2758 15.2682H32.1123V15.281V34.746H35.8483V16.3474C36.7759 16.2102 38.08 16.073 39.6964 16.073C42.5746 16.073 45.2747 17.9151 45.2747 20.2053C45.2747 25.0693 39.1692 24.1693 37.6024 25.2302C41.2007 25.6674 44.9055 32.0844 47.488 35.1503C48.7976 36.7106 49.8832 37.885 51.551 37.9838C52.699 38.0533 53.97 37.9216 54.9931 37.1533C52.1167 37.1935 48.8693 31.1753 46.318 28.5851Z" fill="#3A4048"/>
<path fill-rule="evenodd" clip-rule="evenodd" d="M16.1157 14.9499C22.9614 14.9499 28.503 19.5065 28.503 25.1205C28.503 30.7399 22.9614 35.2966 16.1157 35.2966C9.27741 35.2966 3.73584 30.7399 3.73584 25.1205C3.73584 19.5065 9.27557 14.9499 16.1157 14.9499ZM16.1157 15.8736C20.8546 15.8736 24.6972 20.0132 24.6972 25.1187C24.6972 30.2314 20.8546 34.371 16.1157 34.371C11.3824 34.371 7.53981 30.2314 7.53981 25.1187C7.53981 20.0132 11.3824 15.8736 16.1157 15.8736Z" fill="#3A4048"/>
<path fill-rule="evenodd" clip-rule="evenodd" d="M63.9642 16.0986V34.746H60.2282V16.0986H59.0563C55.6087 16.0931 53.4523 16.2925 51.5586 17.659V15.2499C58.5788 15.2499 65.6063 15.2499 72.6338 15.2499V17.659C71.135 16.4169 68.5837 16.0913 65.1361 16.0986H63.9642Z" fill="#3A4048"/>
<path fill-rule="evenodd" clip-rule="evenodd" d="M87.7411 18.5645V16.2541C86.0807 15.356 83.4908 14.906 81.6614 14.8676C79.4352 14.8236 77.1355 15.2243 75.6239 16.3657C73.4859 17.9828 73.5612 20.8364 75.4292 22.6839C76.9959 24.226 79.6483 25.2943 81.9608 26.3735C84.4312 27.5223 86.4995 28.7022 86.4186 31.0125C86.369 32.4613 85.1953 33.3668 83.5294 33.8094C80.9909 34.4844 78.998 34.1094 76.6965 32.8729C75.2179 32.0735 74.1195 31.1991 74.1195 31.1991V33.5094C74.1195 33.5094 76.8343 35.0387 80.776 35.0826C83.0959 35.1082 85.8419 34.8009 87.2397 33.7838C90.3989 31.4863 90.0738 28.1644 88.1544 26.368C86.6005 24.901 84.299 23.9205 82.6624 23.2272C79.4719 21.7291 77.0639 20.4742 77.0639 18.6815C77.0639 16.8889 78.3699 15.806 81.3601 15.806C84.3504 15.806 87.7411 18.5645 87.7411 18.5645Z" fill="#3A4048"/>
<path fill-rule="evenodd" clip-rule="evenodd" d="M9.97556 9.90113C12.1962 12.3139 14.5914 14.0791 18.3917 12.4694C16.5145 12.2133 15.7173 11.7121 14.404 10.3511C12.2421 8.11761 10.5266 5.48533 8.41613 3.18779C6.19546 0.77501 3.8003 -0.990217 0 0.619522C1.88454 0.875617 2.67435 1.37683 3.98765 2.73048C6.15505 4.96582 7.8651 7.6036 9.97556 9.90113Z" fill="#A27413"/>
</symbol>







<symbol id="tooth-icon" width="65" height="49" viewBox="0 0 65 49" fill="none" xmlns="http://www.w3.org/2000/svg">
<path d="M32.0716 40.6768C41.5617 40.6768 49.2549 32.9835 49.2549 23.4934C49.2549 14.0033 41.5617 6.31006 32.0716 6.31006C22.5814 6.31006 14.8882 14.0033 14.8882 23.4934C14.8882 32.9835 22.5814 40.6768 32.0716 40.6768Z" fill="#FEFEFE"/>
<path d="M48.662 4.89038C49.0161 5.20622 49.3613 5.53169 49.697 5.86732C54.2069 10.3774 56.9976 16.6103 56.9976 23.4936C56.9976 30.3768 54.2069 36.6097 49.697 41.1197C46.4631 44.3541 42.3437 46.7035 37.7333 47.7742V45.9301C41.8474 44.8952 45.5238 42.7584 48.4296 39.8525C52.616 35.6662 55.206 29.8817 55.206 23.4936C55.206 17.2242 52.7116 11.5365 48.662 7.37048V4.89038ZM15.4801 7.37048C11.4305 11.5365 8.93609 17.2242 8.93609 23.4936C8.93609 29.8817 11.5261 35.6662 15.7118 39.8525C18.5563 42.6968 22.1382 44.8032 26.146 45.8626V47.7116C21.6419 46.6133 17.6169 44.292 14.4446 41.1197C9.93457 36.6091 7.14453 30.3768 7.14453 23.4936C7.14453 16.6103 9.93523 10.3774 14.4451 5.86732C14.7808 5.5317 15.1266 5.20623 15.4801 4.89038V7.37048H15.4801Z" fill="#FEFEFE"/>
<path fill-rule="evenodd" clip-rule="evenodd" d="M14.4133 6.41466C14.6056 5.72309 14.9556 4.59205 15.6023 3.62036C16.2496 2.64877 17.1933 1.8372 18.175 1.29436C19.1574 0.750867 20.178 0.476229 20.8636 0.295245C21.5497 0.11426 21.9009 0.0265074 22.0818 0.00442748C22.2628 -0.0176525 22.2742 0.0265074 22.1863 0.520378C22.0986 1.0136 21.9117 1.95785 21.6978 2.76999C21.484 3.58157 21.2422 4.26178 20.6169 4.88768C19.9917 5.51292 18.9819 6.0832 18.0765 6.46188C17.1717 6.84046 16.3703 7.02745 15.7337 7.2304C15.0976 7.43291 14.6259 7.6527 14.39 7.71838C14.1541 7.78406 14.1541 7.6963 14.1708 7.52668C14.1876 7.35707 14.2215 7.1056 14.4132 6.41466H14.4133Z" fill="#8A631F"/>
<path fill-rule="evenodd" clip-rule="evenodd" d="M8.82323 12.3789C8.47428 11.7888 7.92707 10.7994 7.68597 9.71121C7.4452 8.62247 7.51077 7.43581 7.78662 6.40052C8.06247 5.36458 8.54858 4.47999 8.87765 3.88819C9.20705 3.29595 9.37896 2.99617 9.48344 2.85693C9.58803 2.7177 9.62596 2.73912 9.90792 3.12633C10.1894 3.51321 10.7159 4.26665 11.1337 4.95124C11.5511 5.63549 11.8594 6.25211 11.8767 7.0968C11.8934 7.94106 11.618 9.01373 11.2796 9.88772C10.9416 10.7612 10.54 11.4367 10.2586 12.0095C9.97721 12.5814 9.81634 13.0516 9.70552 13.2575C9.59459 13.4633 9.53416 13.4053 9.42847 13.2816C9.32279 13.1579 9.17219 12.968 8.82322 12.3789H8.82323Z" fill="#8A631F"/>
<path fill-rule="evenodd" clip-rule="evenodd" d="M6.74562 21.5047C6.14301 21.1782 5.16487 20.611 4.39843 19.8016C3.6322 18.9916 3.07822 17.9401 2.78248 16.9104C2.48631 15.8801 2.44849 14.8714 2.42631 14.1946C2.40434 13.5173 2.39756 13.1718 2.41571 12.9985C2.43375 12.8254 2.47724 12.8243 2.91823 13.0114C3.35866 13.1984 4.19756 13.574 4.90794 13.9463C5.61778 14.3185 6.1993 14.6888 6.64837 15.4044C7.09689 16.1198 7.41219 17.1816 7.57142 18.1051C7.73077 19.028 7.73361 19.8139 7.78672 20.4498C7.83951 21.0851 7.94334 21.5711 7.95415 21.8046C7.96497 22.0383 7.88322 22.0195 7.72891 21.9678C7.57459 21.916 7.34781 21.8306 6.74563 21.5047L6.74562 21.5047Z" fill="#8A631F"/>
<path fill-rule="evenodd" clip-rule="evenodd" d="M7.92213 31.5684C7.23667 31.573 6.10629 31.5481 5.04454 31.2088C3.9827 30.869 2.99013 30.2152 2.23428 29.4558C1.47778 28.6962 0.958112 27.8309 0.612323 27.2488C0.266311 26.666 0.0936386 26.3666 0.0259876 26.2062C-0.0417746 26.0459 -0.00417091 26.0238 0.47232 25.9751C0.948378 25.9264 1.86433 25.8506 2.66619 25.8341C3.4675 25.8177 4.15558 25.8616 4.89415 26.2717C5.63218 26.6821 6.42048 27.46 7.0055 28.1921C7.5903 28.9237 7.97194 29.6107 8.32528 30.1421C8.67784 30.6731 9.00331 31.0487 9.12538 31.2482C9.24757 31.4475 9.1669 31.4706 9.0068 31.4997C8.84669 31.5287 8.60691 31.5634 7.9221 31.5684L7.92213 31.5684Z" fill="#8A631F"/>
<path fill-rule="evenodd" clip-rule="evenodd" d="M13.7348 41.4418C13.0723 41.6178 11.9716 41.8764 10.8587 41.8134C9.74563 41.75 8.62104 41.3652 7.69941 40.8191C6.77689 40.2728 6.05722 39.565 5.5768 39.088C5.09604 38.6103 4.85407 38.3635 4.74839 38.2253C4.64271 38.0869 4.67363 38.0562 5.12281 37.8897C5.57144 37.7235 6.43942 37.421 7.21165 37.2045C7.98333 36.9882 8.66049 36.8586 9.47819 37.0709C10.2955 37.2836 11.2533 37.8397 12.0028 38.4022C12.7519 38.9643 13.2934 39.534 13.7683 39.9601C14.2425 40.386 14.6516 40.6683 14.8197 40.8308C14.9879 40.9933 14.9155 41.0357 14.7678 41.1041C14.62 41.1722 14.3965 41.2658 13.7348 41.4419L13.7348 41.4418Z" fill="#8A631F"/>
<path fill-rule="evenodd" clip-rule="evenodd" d="M22.8934 46.8666C22.3771 47.3175 21.5044 48.0365 20.4786 48.4725C19.4523 48.9082 18.2736 49.0608 17.2054 48.9789C16.1365 48.8972 15.1779 48.5809 14.5359 48.3656C13.8935 48.15 13.5672 48.0359 13.4112 47.9585C13.2553 47.8812 13.2694 47.84 13.5985 47.492C13.9274 47.1444 14.5719 46.4891 15.1686 45.9532C15.765 45.4177 16.3148 45.0019 17.142 44.8305C17.969 44.6596 19.074 44.7344 19.9951 44.9071C20.9157 45.0797 21.6532 45.351 22.2677 45.523C22.8814 45.6951 23.3732 45.7673 23.5959 45.8386C23.8186 45.91 23.7725 45.9799 23.6702 46.1066C23.5679 46.2332 23.4088 46.4159 22.8933 46.8666H22.8934Z" fill="#8A631F"/>
<path fill-rule="evenodd" clip-rule="evenodd" d="M49.7541 6.41466C49.5618 5.72309 49.2118 4.59205 48.5651 3.62036C47.9178 2.64877 46.9742 1.8372 45.9924 1.29436C45.01 0.750867 43.9894 0.476229 43.3038 0.295245C42.6177 0.11426 42.2666 0.0265074 42.0856 0.00442748C41.9046 -0.0176525 41.8932 0.0265074 41.9811 0.520378C42.0689 1.0136 42.2557 1.95785 42.4696 2.76999C42.6834 3.58157 42.9252 4.26178 43.5505 4.88768C44.1757 5.51292 45.1856 6.0832 46.0909 6.46188C46.9957 6.84046 47.7971 7.02745 48.4337 7.2304C49.0698 7.43291 49.5415 7.6527 49.7774 7.71838C50.0133 7.78406 50.0133 7.6963 49.9966 7.52668C49.9798 7.35707 49.9459 7.1056 49.7542 6.41466H49.7541Z" fill="#8A631F"/>
<path fill-rule="evenodd" clip-rule="evenodd" d="M55.3437 12.3789C55.6927 11.7888 56.24 10.7994 56.481 9.71121C56.7217 8.62247 56.6562 7.43581 56.3803 6.40052C56.1046 5.36458 55.6183 4.47999 55.2893 3.88819C54.9599 3.29595 54.788 2.99617 54.6835 2.85693C54.5789 2.7177 54.541 2.73912 54.259 3.12633C53.9775 3.51321 53.451 4.26665 53.0332 4.95124C52.6159 5.63549 52.3075 6.25211 52.2903 7.0968C52.2736 7.94106 52.549 9.01373 52.8873 9.88772C53.2254 10.7612 53.6269 11.4367 53.9083 12.0095C54.1897 12.5814 54.3506 13.0516 54.4614 13.2575C54.5723 13.4633 54.6328 13.4053 54.7385 13.2816C54.8442 13.1579 54.9948 12.968 55.3437 12.3789H55.3437Z" fill="#8A631F"/>
<path fill-rule="evenodd" clip-rule="evenodd" d="M57.4214 21.5047C58.024 21.1782 59.0021 20.611 59.7686 19.8016C60.5348 18.9916 61.0888 17.9401 61.3845 16.9104C61.6807 15.8801 61.7186 14.8714 61.7407 14.1946C61.7626 13.5173 61.7694 13.1718 61.7514 12.9985C61.7332 12.8254 61.6897 12.8243 61.2488 13.0114C60.8083 13.1984 59.9694 13.574 59.2591 13.9463C58.5492 14.3185 57.9677 14.6888 57.5186 15.4044C57.0701 16.1198 56.7548 17.1816 56.5956 18.1051C56.4362 19.028 56.4334 19.8139 56.3803 20.4498C56.3275 21.0851 56.2237 21.5711 56.2128 21.8046C56.2021 22.0383 56.2838 22.0195 56.4381 21.9678C56.5924 21.916 56.8192 21.8306 57.4214 21.5047V21.5047Z" fill="#8A631F"/>
<path fill-rule="evenodd" clip-rule="evenodd" d="M56.2448 31.5684C56.9303 31.573 58.0606 31.5481 59.1224 31.2088C60.1842 30.869 61.1768 30.2152 61.9327 29.4558C62.6892 28.6962 63.2088 27.8309 63.5547 27.2488C63.9006 26.666 64.0733 26.3666 64.1411 26.2062C64.2087 26.0459 64.1711 26.0238 63.6946 25.9751C63.2186 25.9264 62.3026 25.8506 61.5008 25.8341C60.6994 25.8177 60.0114 25.8616 59.2728 26.2717C58.5348 26.6821 57.7465 27.46 57.1614 28.1921C56.5766 28.9237 56.195 29.6107 55.8417 30.1421C55.4891 30.6731 55.1636 31.0487 55.0416 31.2482C54.9194 31.4475 55 31.4706 55.1601 31.4997C55.3202 31.5287 55.56 31.5634 56.2448 31.5684L56.2448 31.5684Z" fill="#8A631F"/>
<path fill-rule="evenodd" clip-rule="evenodd" d="M50.4323 41.4418C51.0948 41.6178 52.1955 41.8764 53.3084 41.8134C54.4215 41.75 55.5461 41.3652 56.4677 40.8191C57.3902 40.2728 58.1099 39.565 58.5903 39.088C59.0711 38.6103 59.313 38.3635 59.4187 38.2253C59.5244 38.0869 59.4935 38.0562 59.0443 37.8897C58.5956 37.7235 57.7277 37.421 56.9554 37.2045C56.1838 36.9882 55.5066 36.8586 54.6889 37.0709C53.8717 37.2836 52.9138 37.8397 52.1643 38.4022C51.4151 38.9643 50.8737 39.534 50.3988 39.9601C49.9246 40.386 49.5155 40.6683 49.3474 40.8308C49.1793 40.9933 49.2516 41.0357 49.3993 41.1041C49.5471 41.1722 49.7706 41.2658 50.4323 41.4419L50.4323 41.4418Z" fill="#8A631F"/>
<path fill-rule="evenodd" clip-rule="evenodd" d="M41.2734 46.8666C41.7897 47.3175 42.6624 48.0365 43.6881 48.4725C44.7145 48.9082 45.8931 49.0608 46.9613 48.9789C48.0303 48.8972 48.9889 48.5809 49.6308 48.3656C50.2733 48.15 50.5996 48.0359 50.7555 47.9585C50.9115 47.8812 50.8974 47.84 50.5682 47.492C50.2394 47.1444 49.5949 46.4891 48.9982 45.9532C48.4018 45.4177 47.8519 45.0019 47.0247 44.8305C46.1977 44.6596 45.0927 44.7344 44.1716 44.9071C43.2511 45.0797 42.5135 45.351 41.8991 45.523C41.2853 45.6951 40.7936 45.7673 40.5709 45.8386C40.3482 45.91 40.3943 45.9799 40.4966 46.1066C40.5989 46.2332 40.758 46.4159 41.2734 46.8666H41.2734Z" fill="#8A631F"/>
<path fill-rule="evenodd" clip-rule="evenodd" d="M22.9028 20.4992C22.9821 21.6455 23.1404 22.865 23.5247 24.4566C23.909 26.0479 24.5186 28.0115 25.0981 29.5848C25.6774 31.1578 26.226 32.3406 26.7079 33.1028C27.1894 33.8651 27.6042 34.2066 27.9579 34.3469C28.3114 34.4871 28.6042 34.4263 28.8726 33.8654C29.1408 33.3043 29.3846 32.243 29.6285 31.249C29.8725 30.2552 30.1161 29.3286 30.348 28.6762C30.5797 28.0237 30.799 27.6455 31.0794 27.4138C31.3077 27.2253 31.5766 27.1338 31.8394 27.1058C32.1022 27.1338 32.371 27.2254 32.5993 27.4138C32.8798 27.6454 33.0991 28.0237 33.3308 28.6762C33.5627 29.3286 33.8063 30.2552 34.0502 31.249C34.2942 32.243 34.5381 33.3043 34.8062 33.8654C35.0747 34.4263 35.3674 34.4871 35.7208 34.3469C36.0746 34.2066 36.4894 33.8651 36.9709 33.1028C37.4527 32.3406 38.0014 31.1578 38.5807 29.5848C39.1602 28.0115 39.7698 26.0479 40.1541 24.4566C40.5384 22.865 40.6966 21.6455 40.776 20.4992C40.8553 19.3526 40.8553 18.2797 40.7395 17.3468C40.6236 16.4137 40.3917 15.6213 39.9586 15.0053C39.5258 14.3894 38.8921 13.9503 38.154 13.6882C37.4162 13.426 36.575 13.3404 35.8553 13.4077C35.1357 13.4747 34.5384 13.6941 33.9284 13.938C33.3188 14.1819 32.6966 14.4505 32.0809 14.5725C32.0003 14.5885 31.9196 14.602 31.8394 14.6131C31.7591 14.602 31.6784 14.5885 31.5978 14.5725C30.9822 14.4504 30.36 14.1819 29.7504 13.938C29.1404 13.6941 28.543 13.4747 27.8236 13.4077C27.1037 13.3404 26.2625 13.426 25.5248 13.6882C24.7867 13.9503 24.1529 14.3894 23.7201 15.0053C23.287 15.6213 23.0551 16.4137 22.9393 17.3468C22.8234 18.2797 22.8234 19.3526 22.9028 20.4992H22.9028Z" fill="#262F33"/>
</symbol>

<symbol id="decor-white" width="102" height="73" viewBox="0 0 102 73" fill="none" xmlns="http://www.w3.org/2000/svg">
<path fill-rule="evenodd" clip-rule="evenodd" d="M54.9943 54.584C67.2367 67.8855 80.441 77.617 101.392 68.7426C91.0429 67.3308 86.6482 64.5677 79.4081 57.0648C67.4898 44.7517 58.0321 30.2401 46.3974 17.574C34.155 4.27256 20.9507 -5.45897 0 3.41537C10.3893 4.8272 14.7435 7.59035 21.9835 15.0529C33.9322 27.3761 43.3596 41.9179 54.9943 54.584Z" fill="white"/>
</symbol>


<symbol id="percent" width="48" height="39" viewBox="0 0 48 39" fill="none" xmlns="http://www.w3.org/2000/svg">
<path fill-rule="evenodd" clip-rule="evenodd" d="M22.7215 29.0628C18.1083 35.3556 12.9025 40.1735 3.42945 37.4426C7.81959 36.3186 9.57596 34.9181 12.3223 31.3517C16.8451 25.497 20.1976 18.8282 24.5805 12.8371C29.1937 6.54438 34.3995 1.72644 43.8725 4.45736C39.4649 5.58337 37.726 6.98185 34.9777 10.531C30.4423 16.3916 27.1044 23.0718 22.7215 29.0628Z" fill="#A27413"/>
<circle cx="11" cy="9" r="7" stroke="black" stroke-width="4"/>
<circle cx="38" cy="30" r="7" stroke="black" stroke-width="4"/>
</symbol>

<symbol id="arrow-btn" width="30" height="30" viewBox="0 0 30 30" fill="none" xmlns="http://www.w3.org/2000/svg">
<circle cx="15" cy="15" r="15" fill="#A27411"/>
<path d="M14.9998 8.0767L15.9084 9.00699L10.5647 14.3507L21.9229 14.3507L21.9229 15.6488L10.5647 15.6488L15.9084 20.9926L14.9998 21.9229L8.0767 14.9998L14.9998 8.0767Z" fill="white"/>
</symbol>

<symbol id="decor-gold" width="48" height="34" viewBox="0 0 48 34" fill="none" xmlns="http://www.w3.org/2000/svg">
<path fill-rule="evenodd" clip-rule="evenodd" d="M25.9127 25.7193C31.6811 31.9868 37.9028 36.5722 47.7746 32.3907C42.8983 31.7255 40.8276 30.4235 37.4162 26.8883C31.8004 21.0864 27.344 14.2488 21.8619 8.28065C16.0934 2.01318 9.87172 -2.5722 0 1.60928C4.89531 2.27452 6.94694 3.57648 10.3584 7.09273C15.9885 12.8993 20.4305 19.7512 25.9127 25.7193Z" fill="#84652D"/>
</symbol>

<symbol id="spoiler-arrow" width="13" height="8" viewBox="0 0 13 8" fill="none" xmlns="http://www.w3.org/2000/svg">
<path d="M4.85904e-05 1.37499L1.07505 0.299987L6.02505 5.24999L10.975 0.299988L12.05 1.37499L6.02505 7.39999L4.85904e-05 1.37499Z" fill="#646E6E"/>
</symbol>


<symbol id="clock" width="21" height="20" viewBox="0 0 21 20" fill="none" xmlns="http://www.w3.org/2000/svg">
<path d="M14.5088 14.825L15.6219 13.7L11.689 9.7V4.675H10.2049V10.3L14.5088 14.825ZM10.8728 20C9.52057 20 8.2426 19.7375 7.03883 19.2125C5.83506 18.6875 4.78382 17.9708 3.88512 17.0625C2.98642 16.1542 2.27735 15.0917 1.75791 13.875C1.23848 12.6583 0.97876 11.3667 0.97876 10C0.97876 8.63333 1.23848 7.34167 1.75791 6.125C2.27735 4.90833 2.98642 3.84583 3.88512 2.9375C4.78382 2.02917 5.83506 1.3125 7.03883 0.7875C8.2426 0.2625 9.52057 0 10.8728 0C12.2249 0 13.5029 0.2625 14.7067 0.7875C15.9104 1.3125 16.9617 2.02917 17.8604 2.9375C18.7591 3.84583 19.4682 4.90833 19.9876 6.125C20.507 7.34167 20.7667 8.63333 20.7667 10C20.7667 11.3667 20.507 12.6583 19.9876 13.875C19.4682 15.0917 18.7591 16.1542 17.8604 17.0625C16.9617 17.9708 15.9104 18.6875 14.7067 19.2125C13.5029 19.7375 12.2249 20 10.8728 20ZM10.8728 18.5C13.1814 18.5 15.1601 17.6667 16.8091 16C18.4581 14.3333 19.2826 12.3333 19.2826 10C19.2826 7.66667 18.4581 5.66667 16.8091 4C15.1601 2.33333 13.1814 1.5 10.8728 1.5C8.56415 1.5 6.58536 2.33333 4.93636 4C3.28736 5.66667 2.46286 7.66667 2.46286 10C2.46286 12.3333 3.28736 14.3333 4.93636 16C6.58536 17.6667 8.56415 18.5 10.8728 18.5Z" fill="#A27411"/>
</symbol>

<symbol id="map" width="17" height="20" viewBox="0 0 17 20" fill="none" xmlns="http://www.w3.org/2000/svg">
<path d="M8.87271 9.75C9.35092 9.75 9.75905 9.57917 10.0971 9.2375C10.4351 8.89583 10.6042 8.48333 10.6042 8C10.6042 7.51667 10.4351 7.10417 10.0971 6.7625C9.75905 6.42083 9.35092 6.25 8.87271 6.25C8.3945 6.25 7.98638 6.42083 7.64833 6.7625C7.31029 7.10417 7.14126 7.51667 7.14126 8C7.14126 8.48333 7.31029 8.89583 7.64833 9.2375C7.98638 9.57917 8.3945 9.75 8.87271 9.75ZM8.87271 18.025C11.0659 16.0083 12.686 14.1792 13.7331 12.5375C14.7803 10.8958 15.3038 9.45 15.3038 8.2C15.3038 6.23333 14.6813 4.625 13.4363 3.375C12.1913 2.125 10.6701 1.5 8.87271 1.5C7.0753 1.5 5.5541 2.125 4.30911 3.375C3.06412 4.625 2.44162 6.23333 2.44162 8.2C2.44162 9.45 2.97754 10.8958 4.04939 12.5375C5.12124 14.1792 6.72901 16.0083 8.87271 18.025ZM8.87271 20C6.21783 17.7167 4.2349 15.5958 2.92395 13.6375C1.613 11.6792 0.95752 9.86667 0.95752 8.2C0.95752 5.7 1.75316 3.70833 3.34445 2.225C4.93573 0.741667 6.77849 0 8.87271 0C10.9669 0 12.8097 0.741667 14.401 2.225C15.9923 3.70833 16.7879 5.7 16.7879 8.2C16.7879 9.86667 16.1324 11.6792 14.8215 13.6375C13.5105 15.5958 11.5276 17.7167 8.87271 20Z" fill="#A27411"/>
</symbol>

<symbol id="vk" width="41" height="41" viewBox="0 0 41 41" fill="none" xmlns="http://www.w3.org/2000/svg">
<path fill-rule="evenodd" clip-rule="evenodd" d="M14.7768 0.916687H27.0562C38.263 0.916687 40.9165 3.57018 40.9165 14.777V27.0564C40.9165 38.2632 38.263 40.9167 27.0562 40.9167H14.7768C3.57 40.9167 0.916504 38.2632 0.916504 27.0564V14.777C0.916504 3.57018 3.57 0.916687 14.7768 0.916687Z" fill="#4680C2"/>
<path fill-rule="evenodd" clip-rule="evenodd" d="M33.6618 14.6923C33.8594 14.0712 33.6618 13.6196 32.7867 13.6196H29.8792C29.1452 13.6196 28.8065 14.0148 28.6089 14.4382C28.6089 14.4382 27.1128 18.0515 25.0239 20.3944C24.3464 21.0719 24.0359 21.2978 23.6689 21.2978C23.4713 21.2978 23.2172 21.0719 23.2172 20.4509V14.664C23.2172 13.9301 22.9914 13.5913 22.3704 13.5913H17.7973C17.3457 13.5913 17.0634 13.9301 17.0634 14.2688C17.0634 14.9745 18.1078 15.1439 18.2208 17.1199V21.4107C18.2208 22.3422 18.0514 22.5116 17.6844 22.5116C16.6964 22.5116 14.297 18.8701 12.8573 14.7205C12.575 13.9019 12.2927 13.5913 11.5588 13.5913H8.62301C7.77615 13.5913 7.63501 13.9865 7.63501 14.41C7.63501 15.1721 8.62301 19.0112 12.2363 24.0924C14.6357 27.5645 18.0514 29.4276 21.1283 29.4276C22.9914 29.4276 23.2172 29.0042 23.2172 28.2985V25.6732C23.2172 24.8263 23.3866 24.6852 23.9794 24.6852C24.4028 24.6852 25.165 24.911 26.8869 26.5765C28.863 28.5525 29.2017 29.4558 30.3026 29.4558H33.2102C34.057 29.4558 34.4522 29.0324 34.2264 28.2138C33.9723 27.3951 33.0126 26.2095 31.7705 24.7981C31.093 24.0077 30.0768 23.1326 29.7663 22.7092C29.3428 22.1446 29.4558 21.9188 29.7663 21.4107C29.738 21.4107 33.2948 16.386 33.6618 14.6923Z" fill="white"/>
</symbol>

<symbol id="wa" width="40" height="40" viewBox="0 0 40 40" fill="none" xmlns="http://www.w3.org/2000/svg">
<path d="M20 40C31.0457 40 40 31.0457 40 20C40 8.9543 31.0457 0 20 0C8.9543 0 0 8.9543 0 20C0 31.0457 8.9543 40 20 40Z" fill="#25D366"/>
<path fill-rule="evenodd" clip-rule="evenodd" d="M20.6593 31.1271H20.6544C18.664 31.1264 16.7083 30.627 14.9712 29.6796L8.66675 31.3333L10.3539 25.1707C9.31319 23.3671 8.76556 21.3212 8.76646 19.2252C8.76907 12.6681 14.1041 7.33334 20.6592 7.33334C23.8406 7.33472 26.8266 8.57323 29.0719 10.8212C31.3172 13.069 32.5531 16.057 32.5519 19.2346C32.5492 25.7902 27.2163 31.1244 20.6593 31.1271ZM15.2633 27.5266L15.6243 27.7408C17.1419 28.6414 18.8816 29.1179 20.6553 29.1186H20.6593C26.1075 29.1186 30.5417 24.6843 30.5439 19.2339C30.5449 16.5927 29.5177 14.1092 27.6515 12.2408C25.7852 10.3724 23.3034 9.34296 20.6632 9.34204C15.2109 9.34204 10.7766 13.7759 10.7744 19.2259C10.7736 21.0936 11.2962 22.9126 12.2857 24.4864L12.5207 24.8604L11.5222 28.508L15.2633 27.5266ZM26.2438 21.7951C26.451 21.8952 26.591 21.9629 26.6507 22.0626C26.725 22.1865 26.725 22.7815 26.4775 23.4757C26.2298 24.1698 25.0426 24.8033 24.4717 24.8886C23.9597 24.9652 23.3119 24.9971 22.6 24.7709C22.1684 24.6339 21.615 24.4511 20.906 24.1449C18.1202 22.942 16.2376 20.242 15.8818 19.7317C15.8569 19.696 15.8394 19.671 15.8297 19.658L15.8273 19.6548C15.67 19.4449 14.6163 18.039 14.6163 16.584C14.6163 15.2152 15.2887 14.4978 15.5982 14.1675C15.6194 14.1449 15.6389 14.1241 15.6564 14.105C15.9287 13.8075 16.2507 13.7331 16.4488 13.7331C16.6469 13.7331 16.8452 13.735 17.0183 13.7437C17.0397 13.7447 17.0619 13.7446 17.0849 13.7445C17.258 13.7435 17.4739 13.7422 17.6869 14.2538C17.7688 14.4506 17.8887 14.7425 18.0151 15.0503C18.2709 15.6728 18.5534 16.3606 18.6031 16.4602C18.6774 16.6089 18.7269 16.7824 18.6279 16.9808C18.613 17.0106 18.5992 17.0386 18.5861 17.0655C18.5117 17.2173 18.457 17.3291 18.3307 17.4765C18.2811 17.5345 18.2297 17.597 18.1784 17.6594C18.0762 17.7839 17.974 17.9084 17.885 17.9971C17.7362 18.1453 17.5813 18.3061 17.7547 18.6036C17.928 18.9011 18.5244 19.8741 19.4078 20.6621C20.3574 21.5091 21.1827 21.8671 21.6011 22.0485C21.6828 22.084 21.7489 22.1127 21.7975 22.137C22.0945 22.2858 22.2679 22.2609 22.4412 22.0626C22.6146 21.8643 23.1841 21.1949 23.3821 20.8974C23.5802 20.6001 23.7784 20.6496 24.0507 20.7487C24.3231 20.848 25.7841 21.5668 26.0812 21.7155C26.1393 21.7446 26.1935 21.7708 26.2438 21.7951Z" fill="#FDFDFD"/>
</symbol>

<symbol id="burger" width="24" height="24" viewBox="0 0 24 24" fill="none" xmlns="http://www.w3.org/2000/svg">
<g clip-path="url(#clip0_1003_279)">
<path d="M3 18H21V16H3V18ZM3 13H21V11H3V13ZM3 6V8H21V6H3Z" fill="#A27411"/>
</g>
<defs>
<clipPath id="clip0_1003_279">
<rect width="24" height="24" fill="white"/>
</clipPath>
</defs>
</symbol>



<symbol id="phone" width="18" height="18" viewBox="0 0 18 18" fill="none" xmlns="http://www.w3.org/2000/svg">
<path d="M3.54 2C3.6 2.89 3.75 3.76 3.99 4.59L2.79 5.79C2.38 4.59 2.12 3.32 2.03 2H3.54ZM13.4 14.02C14.25 14.26 15.12 14.41 16 14.47V15.96C14.68 15.87 13.41 15.61 12.2 15.21L13.4 14.02ZM4.5 0H1C0.45 0 0 0.45 0 1C0 10.39 7.61 18 17 18C17.55 18 18 17.55 18 17V13.51C18 12.96 17.55 12.51 17 12.51C15.76 12.51 14.55 12.31 13.43 11.94C13.33 11.9 13.22 11.89 13.12 11.89C12.86 11.89 12.61 11.99 12.41 12.18L10.21 14.38C7.38 12.93 5.06 10.62 3.62 7.79L5.82 5.59C6.1 5.31 6.18 4.92 6.07 4.57C5.7 3.45 5.5 2.25 5.5 1C5.5 0.45 5.05 0 4.5 0Z" fill="#A27411"/>
</symbol>

<symbol id="logo" fill="none" viewBox="0 0 267 130">
<path fill="#3A4048" fill-rule="evenodd" d="M137.844 81.378c-3.935-3.838-8.79-7.646-14.365-9.364 14.884-.961 22.515-7.001 22.515-14.88 0-12.885-18.023-14.34-28.115-14.305-11.452.036-19.777.513-21.826.639h-.482V98.918h11.119V46.541c2.763-.394 6.641-.782 11.452-.782 8.563 0 16.601 5.246 16.601 11.764 0 13.846-18.174 11.286-22.834 14.306 10.706 1.24 21.731 19.516 29.418 28.241 3.896 4.441 7.129 7.783 12.09 8.069 3.414.197 7.204-.179 10.242-2.363-8.563.113-18.223-17.022-25.815-24.398ZM47.96 42.56c20.373 0 36.867 12.975 36.867 28.952 0 15.995-16.494 28.97-36.866 28.97-20.353 0-36.848-12.975-36.848-28.97 0-15.977 16.495-28.952 36.848-28.952Zm0 2.632c14.102 0 25.541 11.782 25.541 26.32 0 14.557-11.439 26.338-25.54 26.338-14.083 0-25.522-11.781-25.522-26.338 0-14.538 11.433-26.32 25.522-26.32ZM190.359 45.831v53.087h-11.12V45.831h-3.489c-10.261-.018-16.676.55-22.314 4.446v-6.863h62.72v6.863c-4.46-3.539-12.053-4.458-22.314-4.446h-3.483ZM261.116 52.85v-6.577c-4.943-2.56-12.648-3.838-18.098-3.945-6.622-.126-13.469 1.014-17.967 4.267-6.358 4.601-6.139 12.724-.576 17.988 4.667 4.393 12.554 7.43 19.439 10.504 7.348 3.27 13.506 6.63 13.262 13.208-.151 4.124-3.64 6.702-8.602 7.962-7.555 1.921-13.487.853-20.334-2.668-4.404-2.274-7.668-4.763-7.668-4.763v6.577s8.075 4.357 19.815 4.476c6.903.072 15.072-.8 19.232-3.694 9.403-6.541 8.432-15.995 2.725-21.116-4.63-4.178-11.47-6.965-16.344-8.94-9.497-4.267-16.658-7.836-16.658-12.94 0-5.102 3.878-8.194 12.78-8.194s18.994 7.855 18.994 7.855Z" clip-rule="evenodd"></path><path fill="#A27413" d="M94.85 120.38h4.812v9.03h1.566v-9.03h4.83v-1.367H94.844v1.367h.007Zm-48.693-1.367h-5.394v10.397h5.394c3.057 0 5.82-1.958 5.82-5.21 0-3.247-2.67-5.187-5.82-5.187Zm-.113 9.048H42.31v-7.693h3.734c2.669 0 4.404 1.51 4.404 3.838 0 2.327-1.735 3.855-4.404 3.855Zm69.68-9.048-4.755 10.397h1.66l.764-1.689h8.132l.783 1.689h1.603l-4.629-10.397h-3.558Zm-1.736 7.359 2.688-6.01h1.604l2.612 6.01h-6.904Zm-27.757 1.104-7.912-8.463H76.62v10.397h1.51v-8.481l7.912 8.481h1.716v-10.397h-1.528v8.463Zm-25.428-2.721h7.254v-1.331h-7.254v-3.056h8.075v-1.349h-9.603v10.397h9.904v-1.349h-8.376v-3.312Zm71.879-5.742h-1.548v10.397h9.704v-1.349h-8.15v-9.048h-.006Zm75.198 8.463-7.93-8.463h-1.679v10.397h1.509v-8.481l7.912 8.481h1.698v-10.397h-1.51v8.463Zm9.147 1.934h1.528v-10.397h-1.528v10.397Zm18.874-2.895c-.933 1.176-2.18 1.833-4.084 1.833-2.631 0-4.423-1.743-4.423-4.142 0-2.453 1.736-4.071 4.423-4.071 1.867 0 3.189.639 4.084 1.779l1.253-.692c-1.121-1.564-2.963-2.435-5.281-2.435-3.433 0-6.045 2.059-6.045 5.419 0 3.378 2.556 5.473 6.045 5.473 2.425 0 4.16-.908 5.3-2.471l-1.272-.693Zm-46.783 2.895h1.529v-10.397h-1.529v10.397Zm-29.33-1.068c-2.631 0-4.423-1.743-4.423-4.142 0-2.453 1.736-4.071 4.423-4.071 1.867 0 3.189.639 4.103 1.779l1.234-.692c-1.121-1.564-2.95-2.435-5.281-2.435-3.433 0-6.026 2.059-6.026 5.419 0 3.378 2.537 5.473 6.026 5.473 2.425 0 4.16-.908 5.3-2.471l-1.253-.693c-.952 1.176-2.199 1.833-4.103 1.833Zm14.101-9.329h-1.547v10.397h9.704v-1.349h-8.15v-9.048h-.007Z"></path><path fill="#A27413" fill-rule="evenodd" d="M29.524 28.034c6.572 6.833 13.663 11.829 24.908 7.27-5.557-.73-7.912-2.144-11.802-5.999-6.403-6.326-11.477-13.775-17.722-20.28C18.336 2.191 11.245-2.804 0 1.755c5.575.729 7.912 2.143 11.802 5.98 6.415 6.321 11.47 13.793 17.723 20.299Z" clip-rule="evenodd"></path>
</symbol>



<symbol id="maptooth" width="37" height="47" viewBox="0 0 37 47" fill="none" xmlns="http://www.w3.org/2000/svg">
<path d="M18.7588 46.9898C26.7381 46.9898 33.2066 46.0367 33.2066 44.8611C33.2066 43.6854 26.7381 42.7323 18.7588 42.7323C10.7795 42.7323 4.31104 43.6854 4.31104 44.8611C4.31104 46.0367 10.7795 46.9898 18.7588 46.9898Z" fill="#262F33"/>
<path fill-rule="evenodd" clip-rule="evenodd" d="M18.4135 0C28.142 0 36.0284 7.88649 36.0284 17.6147C36.0284 24.1423 31.8849 29.5244 28.1834 34.5692C26.4496 36.932 25.013 38.6345 23.8247 39.9741C22.6357 41.3131 21.6959 42.2891 20.9511 43.043C20.2058 43.7966 19.6561 44.3289 19.2395 44.5949C18.9426 44.7841 18.7134 44.8386 18.4938 44.8001C18.2741 44.8388 18.0444 44.7843 17.7476 44.5949C17.331 44.3289 16.7812 43.7966 16.0359 43.043C15.291 42.2891 14.3512 41.3131 13.1623 39.9741C11.9739 38.6346 10.5374 36.932 8.80356 34.5692C5.05965 29.4675 0.798828 24.2528 0.798828 17.6147C0.798828 7.88636 8.68532 0 18.4135 0Z" fill="#8A631F"/>
<path fill-rule="evenodd" clip-rule="evenodd" d="M8.55669 15.3096C8.6435 16.5629 8.81648 17.8963 9.23671 19.6364C9.65681 21.3763 10.3234 23.5233 10.9569 25.2435C11.5904 26.9633 12.1902 28.2565 12.7171 29.09C13.2436 29.9235 13.6971 30.2968 14.084 30.4503C14.4705 30.6034 14.7904 30.537 15.084 29.9239C15.3773 29.3103 15.6439 28.15 15.9105 27.0631C16.1772 25.9765 16.4436 24.9634 16.6971 24.2499C16.9503 23.5366 17.1902 23.1229 17.4968 22.8696C17.7464 22.6636 18.0403 22.5634 18.3277 22.5329C18.6152 22.5633 18.909 22.6634 19.1587 22.8696C19.4652 23.1228 19.7051 23.5366 19.9583 24.2499C20.2119 24.9633 20.4783 25.9763 20.7449 27.0631C21.0116 28.1498 21.2783 29.3103 21.5715 29.9239C21.865 30.537 22.1851 30.6034 22.5715 30.4503C22.9582 30.2968 23.4118 29.9235 23.9383 29.09C24.4651 28.2565 25.0649 26.9633 25.6986 25.2435C26.3321 23.5231 26.9987 21.3763 27.4188 19.6364C27.839 17.8963 28.012 16.5628 28.0988 15.3096C28.1856 14.056 28.1856 12.8829 28.0589 11.863C27.9321 10.8427 27.6786 9.97613 27.2051 9.3027C26.732 8.62927 26.0388 8.14923 25.232 7.8627C24.4254 7.57604 23.5056 7.48239 22.7186 7.55615C21.9319 7.6294 21.2788 7.86929 20.6119 8.13605C19.9454 8.40269 19.265 8.69631 18.592 8.82976C18.5038 8.84712 18.4157 8.86207 18.3279 8.87398C18.24 8.86207 18.1518 8.84712 18.0636 8.82976C17.3906 8.69631 16.7102 8.40269 16.0437 8.13605C15.3768 7.86942 14.7237 7.6294 13.937 7.55615C13.1499 7.48252 12.2301 7.57617 11.4236 7.8627C10.6166 8.14936 9.92357 8.6294 9.4505 9.3027C8.97705 9.97613 8.72334 10.8427 8.59674 11.863C8.47014 12.8829 8.47014 14.056 8.55682 15.3096H8.55669Z" fill="#FFFFFE"/>
</symbol>

<symbol id="pricetag" width="67" height="44" viewBox="0 0 67 44" fill="none" xmlns="http://www.w3.org/2000/svg">
<path fill-rule="evenodd" clip-rule="evenodd" d="M15.4165 6.48798L17.0803 22.4538L53.6356 43.4128L66.8272 21.4058L30.5186 0.323883L15.4165 6.48798Z" fill="#8A631F"/>
<path d="M22.7832 14.1937C24.5875 14.1937 26.0503 12.7309 26.0503 10.9266C26.0503 9.12223 24.5875 7.65952 22.7832 7.65952C20.9788 7.65952 19.5161 9.12223 19.5161 10.9266C19.5161 12.7309 20.9788 14.1937 22.7832 14.1937Z" fill="#262F33"/>
<path d="M22.7829 13.2695C24.0768 13.2695 25.1258 12.2205 25.1258 10.9265C25.1258 9.63258 24.0768 8.58362 22.7829 8.58362C21.4889 8.58362 20.4399 9.63258 20.4399 10.9265C20.4399 12.2205 21.4889 13.2695 22.7829 13.2695Z" fill="#FFFFFE"/>
<path d="M23.0753 11.403C22.8125 11.5641 22.4674 11.4819 22.3063 11.2192C22.1454 10.9562 22.2276 10.6113 22.4903 10.4502C22.9901 10.113 23.4858 9.77695 23.8356 9.36224C24.013 9.14958 24.1632 8.90979 24.27 8.64878C24.368 8.40997 24.4321 8.14674 24.4496 7.86649C24.4691 7.55737 24.4351 7.22284 24.3312 6.86735C24.2311 6.52394 24.0655 6.15561 23.8235 5.76459C23.5524 5.3262 23.1833 4.85993 22.723 4.40353C22.3053 3.98932 21.8114 3.58374 21.2462 3.2164C20.6356 2.81946 19.935 2.46273 19.1495 2.16175C18.3924 1.87163 17.5615 1.63406 16.664 1.46334C15.7418 1.28769 14.7439 1.17865 13.7272 1.13621C12.68 1.09255 11.613 1.11722 10.5887 1.20776C9.59004 1.29608 8.61754 1.45101 7.704 1.6607C6.78652 1.87139 5.93688 2.13758 5.18394 2.44793C4.46086 2.74594 3.82338 3.08763 3.28163 3.45151C2.72704 3.82452 2.27237 4.22319 1.93069 4.62532C1.61811 4.99266 1.40176 5.36 1.27273 5.72067C1.14247 6.09073 1.09659 6.46275 1.12693 6.82837C1.15703 7.19225 1.2599 7.55367 1.42643 7.90078C1.60159 8.2659 1.851 8.62436 2.16234 8.9616L2.188 8.9912C2.49218 9.31487 2.86001 9.62128 3.31246 9.91313L3.3359 9.92941C3.80784 10.2319 4.3681 10.5175 5.03814 10.7916C5.72521 11.0724 6.54154 11.3452 7.40179 11.5863C8.25563 11.8251 9.15017 12.0318 10.0001 12.1801C10.7342 12.3081 11.4406 12.3947 12.0842 12.4512C12.9124 12.5227 13.636 12.5457 14.1878 12.5457C15.1389 12.5479 15.5701 12.4778 15.9989 12.4088L16.0184 12.4061L16.0329 12.4043L16.1486 13.5147C15.6833 13.588 15.2087 13.6613 14.1876 13.6618C13.6118 13.664 12.8551 13.6401 11.9877 13.5651C11.3207 13.5068 10.5833 13.4158 9.80763 13.2804C8.92567 13.1267 7.99363 12.9108 7.09958 12.6606C6.21713 12.4135 5.36182 12.126 4.6185 11.8224C3.87889 11.5194 3.25646 11.2029 2.73197 10.8656L2.70952 10.8523C2.18232 10.5124 1.74566 10.146 1.37363 9.74956L1.34131 9.71725C0.95942 9.30402 0.647836 8.8533 0.422104 8.38135C0.194645 7.90645 0.053531 7.41404 0.0128252 6.91965C-0.0303476 6.39738 0.0345349 5.86894 0.221782 5.34495C0.39842 4.85623 0.680401 4.37196 1.07858 3.90347C1.48342 3.42709 2.0158 2.95909 2.66092 2.52515C3.26189 2.12105 3.96598 1.74409 4.76011 1.41647C5.57423 1.08095 6.48283 0.795765 7.45483 0.572006C8.40365 0.353922 9.42697 0.192332 10.4927 0.097845C11.5698 0.00212466 12.6837 -0.0235323 13.7711 0.0216141C14.8441 0.0670073 15.8977 0.181477 16.87 0.36675C17.8439 0.55227 18.7387 0.806866 19.5467 1.11672C20.4018 1.44385 21.1727 1.83808 21.8538 2.28091C22.4869 2.69241 23.0405 3.14708 23.5095 3.61236C24.0317 4.13019 24.4556 4.668 24.7721 5.17916C25.0684 5.65777 25.2741 6.11861 25.4017 6.55699C25.5443 7.04522 25.5911 7.50581 25.5637 7.93655C25.5386 8.3409 25.4446 8.72205 25.3015 9.07212C25.1483 9.44686 24.9364 9.78608 24.6882 10.0809C24.2291 10.6231 23.6745 10.9989 23.1204 11.3731L23.0758 11.4027L23.0753 11.403Z" fill="#262F33"/>
<path d="M31.4733 28.465L42.4693 10.9018L47.0938 13.7971C49.242 15.1421 50.5606 16.5726 51.0496 18.0885C51.555 19.6147 51.2892 21.206 50.2522 22.8623C49.5541 23.9774 48.6993 24.7776 47.6878 25.2629C46.6866 25.7317 45.5524 25.8662 44.2851 25.6663C43.0343 25.4766 41.6791 24.9249 40.2196 24.0112L38.1533 22.7175L33.6872 29.851L31.4733 28.465ZM31.4278 23.7798L32.4288 22.1809L40.8414 27.4479L39.8404 29.0468L31.4278 23.7798ZM33.7994 19.9916L34.9699 18.1222L40.6029 21.6489L39.4324 23.5184L33.7994 19.9916ZM41.0702 21.9415C42.0706 22.5678 42.9819 22.9899 43.8041 23.208C44.6427 23.4363 45.4046 23.4225 46.0898 23.1667C46.775 22.9109 47.3845 22.3566 47.9184 21.5038C48.6165 20.3887 48.7907 19.345 48.4407 18.3726C48.0908 17.4002 47.186 16.4571 45.7265 15.5434L43.5127 14.1573L39.3238 20.8481L41.0702 21.9415Z" fill="#FFFFFE"/>
</symbol>


<symbol id="tools" width="36" height="65" viewBox="0 0 36 65" fill="none" xmlns="http://www.w3.org/2000/svg">
<path fill-rule="evenodd" clip-rule="evenodd" d="M9.19775 0C13.7472 0 17.4351 3.68792 17.4351 8.23736C17.4351 12.5454 14.1282 16.0802 9.91477 16.4433V22.732H8.25074V16.4201C4.14776 15.9503 0.960938 12.4659 0.960938 8.23736C0.960938 3.68792 4.64886 0 9.19829 0H9.19775Z" fill="#262F33"/>
<path fill-rule="evenodd" clip-rule="evenodd" d="M6.55147 22.7315H11.5771L11.9088 29.9888H6.20892L6.55201 22.7315H6.55147ZM12.0701 33.5166L13.5079 65H4.55518L6.04225 33.5166H12.0701Z" fill="#8A631F"/>
<path d="M35.8666 22.8019H28.3457V42.8373H35.8666V22.8019Z" fill="#8A631F"/>
<path d="M35.8666 44.9645H28.3457V65H35.8666V44.9645Z" fill="#8A631F"/>
<path fill-rule="evenodd" clip-rule="evenodd" d="M31.1393 22.8018V16.2831L24.5156 8.4619L31.9028 0.141747H34.2487L27.0931 8.32878L33.2676 15.6841V22.8018H31.1393Z" fill="#262F33"/>
</symbol>


<symbol id="thumbup" width="47" height="41" viewBox="0 0 47 41" fill="none" xmlns="http://www.w3.org/2000/svg">
<path d="M13.6082 15.0332H2.57051C1.54862 15.0332 0.720215 15.8616 0.720215 16.8835V37.9722C0.720215 38.9941 1.54862 39.8225 2.57051 39.8225H13.6082C14.6301 39.8225 15.4585 38.9941 15.4585 37.9722V16.8835C15.4585 15.8616 14.6301 15.0332 13.6082 15.0332Z" fill="#262F33"/>
<path d="M10.1713 21.2617C11.3548 21.2617 12.3142 20.3023 12.3142 19.1188C12.3142 17.9352 11.3548 16.9758 10.1713 16.9758C8.98775 16.9758 8.02832 17.9352 8.02832 19.1188C8.02832 20.3023 8.98775 21.2617 10.1713 21.2617Z" fill="#FFFFFE"/>
<path fill-rule="evenodd" clip-rule="evenodd" d="M15.4591 17.1447C16.4206 17.02 17.7229 16.8107 19.1178 16.4209C21.0296 15.8862 23.1155 15.013 24.8937 13.929C26.6719 12.8445 28.1413 11.5489 29.3075 10.167C30.4743 8.78482 31.338 7.31477 31.9336 6.00472C32.5298 4.69419 32.8588 3.54304 33.0332 2.56137C33.2084 1.5797 33.2284 0.767997 33.2849 0.361986C33.3413 -0.0440251 33.4343 -0.0440251 33.8811 0.0538413C34.328 0.151233 35.1301 0.346966 35.9059 0.84531C36.6817 1.34365 37.4324 2.14524 37.9051 3.199C38.3777 4.25229 38.573 5.55728 38.4493 6.99144C38.3263 8.42497 37.8844 9.98672 37.499 11.1227C37.1135 12.2582 36.7847 12.9675 36.4093 13.5638C36.0972 14.0604 35.7521 14.4783 35.4261 14.9404H34.6692C33.1416 14.9404 31.8931 16.1893 31.8931 17.716V18.4235C31.8931 19.7302 32.8065 20.8314 34.0275 21.1229L34.0152 21.2772C32.8008 21.5726 31.8929 22.6711 31.8929 23.9732V24.6809C31.8929 25.8332 32.6038 26.8265 33.6096 27.2449L33.5821 27.6795C32.591 28.1047 31.8929 29.0901 31.8929 30.2318V30.9393C31.8929 31.9267 32.4148 32.7975 33.1967 33.2892L33.129 34.1836C32.3845 34.6826 31.8928 35.8393 31.8928 36.7974V37.5049C31.8928 38.3669 32.2915 39.1416 32.9141 39.6516L32.9146 39.7662C32.9179 40.49 32.9303 40.5119 32.8017 40.6965C32.673 40.881 32.4061 40.9225 31.2551 40.9583C30.104 40.9942 28.069 41.0255 26.6606 40.9689C25.2529 40.9125 24.4718 40.7681 23.6442 40.4342C22.8168 40.1003 21.9438 39.576 20.7719 38.934C19.6005 38.2913 18.1306 37.5311 16.9693 37.0793C16.3998 36.8571 15.9043 36.7095 15.4585 36.6021V17.1446L15.4591 17.1447Z" fill="#8A631F"/>
<path d="M44.2878 15.7428H34.8834C33.8788 15.7428 33.0645 16.6669 33.0645 17.8068V18.3319C33.0645 19.4718 33.8788 20.3959 34.8834 20.3959H44.2878C45.2924 20.3959 46.1068 19.4718 46.1068 18.3319V17.8068C46.1068 16.6669 45.2924 15.7428 44.2878 15.7428Z" fill="#8A631F"/>
<path d="M44.0226 22.0007H34.8404C33.8596 22.0007 33.0645 22.925 33.0645 24.0651V24.59C33.0645 25.7301 33.8596 26.6543 34.8404 26.6543H44.0226C45.0035 26.6543 45.7986 25.7301 45.7986 24.59V24.0651C45.7986 22.925 45.0035 22.0007 44.0226 22.0007Z" fill="#8A631F"/>
<path d="M43.5958 28.2587H34.3427C33.6368 28.2587 33.0645 28.976 33.0645 29.8609V31.3101C33.0645 32.195 33.6368 32.9123 34.3427 32.9123H43.5958C44.3017 32.9123 44.874 32.195 44.874 31.3101V29.8609C44.874 28.976 44.3017 28.2587 43.5958 28.2587Z" fill="#8A631F"/>
<path d="M42.5023 34.5166H34.2335C33.5878 34.5166 33.0645 35.2471 33.0645 36.1481V37.539C33.0645 38.44 33.5878 39.1704 34.2335 39.1704H42.5023C43.1479 39.1704 43.6713 38.44 43.6713 37.539V36.1481C43.6713 35.2471 43.1479 34.5166 42.5023 34.5166Z" fill="#8A631F"/>
</symbol>


<symbol id="woman" width="38" height="54" viewBox="0 0 38 54" fill="none" xmlns="http://www.w3.org/2000/svg">
<path fill-rule="evenodd" clip-rule="evenodd" d="M4.6626 39.4338H35.7028V15.4225C35.7028 6.93954 28.7633 0 20.2803 0H20.0851C11.6021 0 4.6626 6.93954 4.6626 15.4225V39.4338Z" fill="#262F33"/>
<path fill-rule="evenodd" clip-rule="evenodd" d="M3.73452 53.5873C3.1663 52.0128 2.5534 50.2581 2.09252 48.7715C1.32227 46.2879 0.975021 44.5531 0.921114 43.1214C0.86672 41.6897 1.10566 40.5615 1.67 39.4552C2.23384 38.3488 3.12259 37.2644 4.73886 36.3751C6.35512 35.4854 8.69696 34.7914 10.5735 34.347C12.4501 33.9022 13.8595 33.7069 14.8357 33.5554C15.8118 33.4029 16.3538 33.2951 16.6472 33.198C16.94 33.0999 16.9832 33.0129 17.0163 32.7206C17.0488 32.4277 17.0702 31.9285 17.0813 31.4948C17.092 31.0611 17.092 30.6925 16.9725 30.4215C16.8531 30.15 16.6141 29.9766 16.0828 29.6294C15.5515 29.2821 14.7269 28.7625 13.7944 27.8077C12.8619 26.8533 11.8207 25.4649 11.2787 23.9792C10.7362 22.4931 10.6925 20.9099 10.9315 19.652C11.1699 18.3937 11.6905 17.4612 12.32 16.7561C12.9484 16.0509 13.6866 15.574 14.7604 15.2267C15.8342 14.8795 17.2435 14.6624 18.7729 14.5002C20.3022 14.3375 21.9505 14.2292 23.4799 13.8931C25.0092 13.5566 26.4186 12.9927 27.3301 12.4721C28.2407 11.9515 28.6535 11.4741 29.0328 10.9972C29.4121 10.5202 29.7594 10.0428 29.9328 9.91268C30.1061 9.78253 30.1061 9.99962 30.1061 11.2468C30.1061 12.4939 30.1061 14.7712 30.1061 16.7779C30.1061 18.7842 30.1061 20.5189 29.8895 21.9511C29.6725 23.3824 29.2383 24.5105 28.588 25.5411C27.9367 26.5712 27.0693 27.5036 26.234 28.1549C25.3987 28.8052 24.5969 29.1738 24.033 29.4128C23.4687 29.6512 23.1428 29.76 22.9806 29.8902C22.8179 30.0203 22.8179 30.1718 22.85 30.6492C22.8825 31.1262 22.9481 31.9285 23.0126 32.3952C23.0777 32.8614 23.1433 32.9916 23.4255 33.1761C23.7071 33.3602 24.2064 33.5986 25.7032 34.0221C27.1995 34.4446 29.6938 35.0522 31.5923 35.7574C33.4902 36.4621 34.7908 37.2644 35.7242 38.0453C36.6567 38.8262 37.2205 39.5858 37.5464 40.3123C37.8718 41.0389 37.9582 41.7324 37.8936 42.9587C37.8281 44.184 37.6115 45.9406 37.2215 47.8172C36.8305 49.6938 36.2662 51.6893 35.8981 53.1861L35.8005 53.5878H3.73452V53.5873Z" fill="#8A631F"/>
<path fill-rule="evenodd" clip-rule="evenodd" d="M9.86914 33.2844L14.0341 31.9828L20.183 47.6326L14.1643 45.2252L15.14 40.2468H9.86914V33.2844Z" fill="#FFFFFE"/>
<path fill-rule="evenodd" clip-rule="evenodd" d="M30.496 33.2844L26.331 31.9828L20.1816 47.6326L26.2004 45.2252L25.2247 40.2468H30.496V33.2844Z" fill="#FFFFFE"/>
<path d="M34.3362 46.4618H27.3408V49.6826H34.3362V46.4618Z" fill="#FFFFFE"/>
</symbol>

<symbol id="tooth" width="41" height="62" viewBox="0 0 41 62" fill="none" xmlns="http://www.w3.org/2000/svg">
<g clip-path="url(#clip0_1_461)">
<path d="M35.0162 19.1628H5.51465V24.5105H35.0162V19.1628Z" fill="#8A631F"/>
<path fill-rule="evenodd" clip-rule="evenodd" d="M0.285156 4.04068L10.6822 12.9754L20.2797 0L29.6978 12.9533L40.542 4.04068L35.0159 17.4101H5.51443L0.285156 4.04068Z" fill="#8A631F"/>
<path fill-rule="evenodd" clip-rule="evenodd" d="M5.4633 38.6841C5.59213 40.5457 5.84914 42.5265 6.47334 45.1114C7.09742 47.6959 8.08752 50.885 9.02855 53.4404C9.96958 55.9952 10.8606 57.9161 11.6432 59.1541C12.4252 60.392 13.0989 60.9467 13.6735 61.1747C14.2476 61.4021 14.7229 61.3036 15.159 60.3927C15.5944 59.4813 15.9906 57.7576 16.3868 56.1434C16.7829 54.5291 17.1785 53.0244 17.5552 51.9647C17.9314 50.9051 18.2876 50.2906 18.7431 49.9144C19.1139 49.6083 19.5505 49.4594 19.9774 49.4141C20.4043 49.4594 20.8409 49.6083 21.2116 49.9144C21.6671 50.2906 22.0234 50.9051 22.3995 51.9647C22.7762 53.0244 23.1719 54.5291 23.5681 56.1434C23.9641 57.7577 24.3603 59.4813 24.7957 60.3927C25.2318 61.3036 25.7073 61.4021 26.2812 61.1747C26.8558 60.9467 27.5295 60.392 28.3115 59.1541C29.0942 57.9161 29.9851 55.9952 30.9262 53.4404C31.8672 50.8852 32.8573 47.6959 33.4814 45.1114C34.1056 42.5265 34.3627 40.5459 34.4915 38.6841C34.6204 36.822 34.6204 35.0794 34.4322 33.5644C34.2441 32.0488 33.8673 30.7616 33.164 29.7614C32.4611 28.7611 31.4318 28.048 30.2331 27.6222C29.0349 27.1964 27.6686 27.0573 26.4995 27.1667C25.3311 27.2756 24.3608 27.6319 23.3702 28.028C22.3801 28.4242 21.3696 28.8602 20.3697 29.0585C20.2388 29.0844 20.1078 29.1064 19.9774 29.1242C19.847 29.1064 19.716 29.0844 19.585 29.0585C18.5852 28.8602 17.5746 28.4242 16.5845 28.028C15.5939 27.6319 14.6237 27.2756 13.4552 27.1667C12.2862 27.0573 10.9199 27.1964 9.72163 27.6222C8.52307 28.048 7.49362 28.7611 6.79069 29.7614C6.08738 30.7616 5.7106 32.0488 5.5226 33.5644C5.33447 35.0794 5.33447 36.822 5.4633 38.6841Z" fill="#262F33"/>
</g>
<defs>
<clipPath id="clip0_1_461">
<rect width="40.2569" height="61.2785" fill="white" transform="translate(0.285156)"/>
</clipPath>
</defs>
</symbol>


<symbol id="decor-gold-big" width="102" height="73" viewBox="0 0 102 73" fill="none" xmlns="http://www.w3.org/2000/svg">
<path fill-rule="evenodd" clip-rule="evenodd" d="M54.9943 54.584C67.2367 67.8855 80.441 77.617 101.392 68.7426C91.0429 67.3308 86.6482 64.5677 79.4081 57.0648C67.4898 44.7517 58.0321 30.2401 46.3974 17.574C34.155 4.27256 20.9507 -5.45897 0 3.41537C10.3893 4.8272 14.7435 7.59035 21.9835 15.0529C33.9322 27.3761 43.3596 41.9179 54.9943 54.584Z" fill="#84652D"/>
</symbol>



</svg>