<svg version="1.1" xmlns="http://www.w3.org/2000/svg" xmlns:xlink="http://www.w3.org/1999/xlink">

<symbol id="letter" width="20" height="15" viewBox="0 0 20 15" fill="none" xmlns="http://www.w3.org/2000/svg">
<rect x="1" y="1" width="18" height="13" rx="1" stroke="#313131"/>
<path d="M1 4.25L9.56618 8.37446C9.84033 8.50646 10.1597 8.50646 10.4338 8.37446L19 4.25" stroke="#313131"/>
</symbol>

<symbol id="tel" width="18" height="18" viewBox="0 0 18 18" fill="none" xmlns="http://www.w3.org/2000/svg">
<path d="M13.7071 11.7071L16.3552 14.3552C16.7113 14.7113 16.7113 15.2887 16.3552 15.6448C14.43 17.57 11.3821 17.7866 9.20399 16.153L7.62857 14.9714C5.88504 13.6638 4.33622 12.115 3.02857 10.3714L1.84701 8.79601C0.213407 6.61788 0.430014 3.56999 2.35523 1.64477C2.71133 1.28867 3.28867 1.28867 3.64477 1.64477L6.29289 4.29289C6.68342 4.68342 6.68342 5.31658 6.29289 5.70711L5.27175 6.72825C5.10946 6.89054 5.06923 7.13846 5.17187 7.34373C6.35853 9.71706 8.28294 11.6415 10.6563 12.8281C10.8615 12.9308 11.1095 12.8905 11.2717 12.7283L12.2929 11.7071C12.6834 11.3166 13.3166 11.3166 13.7071 11.7071Z" stroke="#313131"/>
</symbol>

<symbol id="tg" width="23" height="20" viewBox="0 0 23 20" fill="none" xmlns="http://www.w3.org/2000/svg">
<path d="M1.53971 9.61424L1.53974 9.61431L1.54789 9.61088L1.35381 9.15009C1.54789 9.61088 1.54793 9.61087 1.548 9.61083L1.54834 9.61069L1.54967 9.61013L1.55499 9.60789L1.57602 9.59903L1.65841 9.56432L1.97417 9.4313L3.1268 8.94553C4.09528 8.53728 5.42188 7.97786 6.85434 7.37317C9.71879 6.16398 13.008 4.77317 14.7027 4.04847L14.7027 4.04852L14.7098 4.04535C15.3538 3.758 16.7744 3.15174 18.0389 2.61524C18.67 2.34745 19.2607 2.09774 19.6936 1.91497L20.2098 1.69715L20.3517 1.63737L20.3887 1.62176L20.3943 1.61941L20.4027 1.61627C20.4129 1.6125 20.4296 1.60653 20.4518 1.59919C20.4963 1.58441 20.5614 1.56455 20.6393 1.54579C20.8013 1.50676 20.9905 1.47943 21.1578 1.49436C21.3229 1.5091 21.4136 1.55872 21.4657 1.62153C21.5187 1.68542 21.6078 1.85457 21.5719 2.27142L21.5719 2.27141L21.5713 2.27952C21.532 2.84394 21.291 4.44808 20.9896 6.45484C20.8716 7.24066 20.7443 8.08821 20.6161 8.95925C20.2775 11.1313 19.9248 13.4043 19.6568 15.1345C19.5227 15.9999 19.4098 16.7295 19.3304 17.2428L19.238 17.8404L19.2135 17.9986L19.2073 18.0392L19.2057 18.0495L19.2053 18.0521L19.2052 18.0528L19.2051 18.053L19.6993 18.1293L19.2051 18.053L19.2025 18.07L19.2012 18.0851L19.2012 18.0853L19.2012 18.0854L19.2012 18.0855L19.2012 18.086L19.2011 18.0865L19.2011 18.0868L19.2007 18.0906C19.2 18.0964 19.1989 18.1065 19.197 18.1204C19.1933 18.1483 19.1868 18.1908 19.1763 18.2436C19.155 18.3506 19.1188 18.4918 19.0601 18.6352C18.9365 18.9373 18.7589 19.1472 18.5094 19.2075C18.3767 19.2395 18.1854 19.2341 17.937 19.1746C17.694 19.1165 17.4316 19.0153 17.1756 18.8941C16.6581 18.6489 16.2279 18.3515 16.1218 18.2644L16.1156 18.2593L16.1093 18.2544C16.0462 18.2059 15.8034 18.0431 15.4735 17.822C15.419 17.7854 15.3621 17.7473 15.3033 17.7078C14.8732 17.4193 14.3069 17.0385 13.7024 16.6237C12.4851 15.7884 11.1413 14.8346 10.4323 14.2192C10.2743 14.0799 10.1621 13.9172 10.1386 13.7659C10.1216 13.6562 10.1326 13.4381 10.4937 13.1138L10.4938 13.1139L10.5022 13.106C12.5384 11.1905 14.9709 8.81021 16.4447 7.29771C16.6472 7.08989 16.8454 6.81888 16.9829 6.55605C17.0517 6.42472 17.1138 6.27937 17.1497 6.13307C17.1823 6.00013 17.2115 5.79454 17.1292 5.58945C17.0269 5.33431 16.803 5.19682 16.566 5.16635C16.3653 5.14052 16.1572 5.18836 15.9677 5.2553C15.579 5.39261 15.0471 5.69263 14.3328 6.19109L14.3328 6.19108L14.33 6.1931C12.3289 7.61046 10.3413 8.98479 8.85374 10.005C8.11003 10.515 7.49149 10.9364 7.05895 11.2303C6.84268 11.3772 6.67292 11.4922 6.55728 11.5704L6.42536 11.6596L6.39218 11.682C6.3901 11.6832 6.38733 11.6847 6.38389 11.6865C6.36888 11.6945 6.34102 11.7084 6.30052 11.7252C6.21961 11.7588 6.088 11.8042 5.90706 11.8371C5.54816 11.9025 4.9802 11.9216 4.21042 11.6846L4.2104 11.6846C3.37008 11.4259 2.45777 11.1235 1.75404 10.8851C1.40252 10.7661 1.10375 10.6633 0.892947 10.5903C0.787557 10.5538 0.704185 10.5247 0.647237 10.5048L0.632068 10.4995C0.616974 10.4867 0.599409 10.4706 0.581721 10.4519C0.52422 10.3912 0.503981 10.3445 0.500694 10.3223C0.49982 10.3164 0.499096 10.3079 0.505098 10.2907C0.511845 10.2714 0.531999 10.228 0.592372 10.1636C0.719446 10.028 0.992292 9.83349 1.53971 9.61424Z" stroke="#313131"/>
</symbol>

<symbol id="spoiler" width="16" height="16" viewBox="0 0 16 16" fill="none" xmlns="http://www.w3.org/2000/svg">
<path fill-rule="evenodd" clip-rule="evenodd" d="M0 8.0002C0 3.58181 3.58181 0 8.0002 0C12.4186 0 16.0004 3.58181 16.0004 8.0002V12.773L16.0004 12.8573C16.0006 13.4523 16.0008 13.8586 15.8991 14.2048C15.6594 15.0211 15.0211 15.6594 14.2048 15.8991C13.8586 16.0008 13.4523 16.0006 12.8573 16.0004L12.773 16.0004H8.00019C3.58181 16.0004 0 12.4186 0 8.0002ZM8.0002 1C4.13409 1 1 4.13409 1 8.0002C1 11.8663 4.13409 15.0004 8.00019 15.0004H12.773C13.4849 15.0004 13.7335 14.9953 13.923 14.9396C14.4128 14.7958 14.7958 14.4128 14.9396 13.923C14.9953 13.7335 15.0004 13.4849 15.0004 12.773V8.0002C15.0004 4.13409 11.8663 1 8.0002 1ZM4.68734 7.06239C4.68734 6.78625 4.9112 6.56239 5.18734 6.56239H10.8125C11.0886 6.56239 11.3125 6.78625 11.3125 7.06239C11.3125 7.33853 11.0886 7.56239 10.8125 7.56239H5.18734C4.9112 7.56239 4.68734 7.33853 4.68734 7.06239ZM8.0001 10.3127C7.72395 10.3127 7.5001 10.5366 7.5001 10.8127C7.5001 11.0889 7.72395 11.3127 8.0001 11.3127H10.8127C11.0888 11.3127 11.3127 11.0889 11.3127 10.8127C11.3127 10.5366 11.0888 10.3127 10.8127 10.3127H8.0001Z" fill="#313131"/>
</symbol>

<symbol id="vk" width="30" height="18" viewBox="0 0 30 18" fill="none" xmlns="http://www.w3.org/2000/svg">
<path d="M28.5293 1.93683L28.5231 1.9561L28.5186 1.9758C28.436 2.3307 28.1538 2.92043 27.7307 3.6501C27.3175 4.36256 26.8007 5.1575 26.2924 5.90435C25.7847 6.65013 25.2891 7.34255 24.9202 7.84885C24.7358 8.10186 24.5833 8.30807 24.4771 8.45085C24.4239 8.52222 24.3824 8.57773 24.3542 8.61527L24.3222 8.65785L24.3141 8.66855L24.3121 8.67116L24.3116 8.67178L24.3115 8.67191L24.7102 8.97364L24.3115 8.67192L24.3025 8.6839L24.2941 8.69641L24.2831 8.71294C24.1325 8.93876 23.9368 9.23233 23.9077 9.57359C23.8742 9.96551 24.0568 10.2996 24.319 10.6176C24.5154 10.8722 24.8931 11.2191 25.2668 11.5623C25.2842 11.5783 25.3016 11.5943 25.3189 11.6102C25.7369 11.9943 26.1839 12.4065 26.5374 12.7984L26.5373 12.7985L26.5457 12.8074C27.2281 13.5276 27.8169 14.1815 28.2684 14.7548C28.7247 15.3339 29.0093 15.7922 29.126 16.1283C29.2249 16.4506 29.1502 16.5557 29.1212 16.5873C29.0661 16.6473 28.8976 16.745 28.4962 16.745H25.3038C25.0685 16.745 24.8944 16.7025 24.7308 16.6221C24.5576 16.5371 24.3736 16.3987 24.1321 16.1715C23.9353 15.9864 23.7203 15.7621 23.4532 15.4834C23.3891 15.4165 23.322 15.3465 23.2514 15.2732C22.8918 14.8994 22.457 14.4549 21.907 13.939L21.9071 13.9389L21.9003 13.9328C19.9932 12.2078 19.0592 11.8683 18.3857 11.8683C18.0619 11.8683 17.636 11.8993 17.3479 12.2351C17.0862 12.5401 17.0509 12.9768 17.0509 13.3947V16.0803C17.0509 16.2438 17.0355 16.3358 17.0133 16.3938C16.9972 16.4355 16.9734 16.473 16.9055 16.5158C16.7228 16.6307 16.2867 16.745 15.2706 16.745C12.0735 16.745 8.49604 14.9168 5.93527 11.4675L5.93529 11.4675L5.93179 11.4629C3.97659 8.89198 2.73683 6.64142 1.98768 4.94471C1.61296 4.09604 1.36198 3.38818 1.20556 2.85018C1.04468 2.29681 0.994507 1.95899 0.994507 1.83521C0.994507 1.67136 1.02938 1.62218 1.04945 1.60254C1.0749 1.57764 1.19277 1.48828 1.58904 1.48828H4.78142C5.12003 1.48828 5.26618 1.55663 5.36018 1.63781C5.47545 1.73738 5.59311 1.92464 5.74092 2.32512C6.53516 4.49523 7.60178 6.52998 8.61339 8.02957C9.11839 8.77817 9.61874 9.40694 10.0744 9.85485C10.3018 10.0784 10.529 10.2679 10.7502 10.4044C10.9632 10.536 11.217 10.6475 11.4863 10.6475C11.6171 10.6475 11.7816 10.6346 11.9449 10.5655C12.1225 10.4903 12.2644 10.3635 12.365 10.1933C12.5389 9.89879 12.5783 9.48529 12.5783 9.00538V4.59543V4.58085L12.5774 4.56629C12.5115 3.43744 12.1505 2.79272 11.7932 2.33682C11.7143 2.23623 11.6368 2.14617 11.5715 2.07038L11.5589 2.05578C11.4877 1.97302 11.4358 1.91184 11.394 1.8551C11.3154 1.74842 11.3099 1.70648 11.3099 1.67662C11.3099 1.65026 11.3575 1.48828 11.6222 1.48828H16.6388C16.8967 1.48828 16.9462 1.5506 16.9572 1.56434L16.9575 1.56474C16.991 1.60684 17.0509 1.73596 17.0509 2.08908V8.02186C17.0509 8.77776 17.4358 9.37842 18.0475 9.37842C18.6803 9.37842 19.1576 8.99862 19.8777 8.32305L19.8879 8.31354L19.8975 8.30348C21.0889 7.0543 22.0935 5.48247 22.7952 4.23822C23.1477 3.61325 23.4271 3.06488 23.6187 2.6721C23.7145 2.4756 23.7885 2.31778 23.8388 2.20847C23.864 2.1538 23.8832 2.11124 23.8963 2.08202L23.9114 2.04834L23.9151 2.03997C23.9922 1.87206 24.0876 1.74284 24.2142 1.65311C24.3374 1.56577 24.5288 1.48828 24.8478 1.48828H28.0401C28.4697 1.48828 28.5571 1.59558 28.5601 1.59957C28.561 1.60085 28.6131 1.67458 28.5293 1.93683Z" stroke="#313131"/>
</symbol>

<symbol id="wa" xmlns="http://www.w3.org/2000/svg" width="18" height="18" viewBox="0 0 24 24">
<path d="M.057 24l1.687-6.163c-1.041-1.804-1.588-3.849-1.587-5.946.003-6.556 5.338-11.891 11.893-11.891 3.181.001 6.167 1.24 8.413 3.488 2.245 2.248 3.481 5.236 3.48 8.414-.003 6.557-5.338 11.892-11.893 11.892-1.99-.001-3.951-.5-5.688-1.448l-6.305 1.654zm6.597-3.807c1.676.995 3.276 1.591 5.392 1.592 5.448 0 9.886-4.434 9.889-9.885.002-5.462-4.415-9.89-9.881-9.892-5.452 0-9.887 4.434-9.889 9.884-.001 2.225.651 3.891 1.746 5.634l-.999 3.648 3.742-.981zm11.387-5.464c-.074-.124-.272-.198-.57-.347-.297-.149-1.758-.868-2.031-.967-.272-.099-.47-.149-.669.149-.198.297-.768.967-.941 1.165-.173.198-.347.223-.644.074-.297-.149-1.255-.462-2.39-1.475-.883-.788-1.48-1.761-1.653-2.059-.173-.297-.018-.458.13-.606.134-.133.297-.347.446-.521.151-.172.2-.296.3-.495.099-.198.05-.372-.025-.521-.075-.148-.669-1.611-.916-2.206-.242-.579-.487-.501-.669-.51l-.57-.01c-.198 0-.52.074-.792.372s-1.04 1.016-1.04 2.479 1.065 2.876 1.213 3.074c.149.198 2.095 3.2 5.076 4.487.709.306 1.263.489 1.694.626.712.226 1.36.194 1.872.118.571-.085 1.758-.719 2.006-1.413.248-.695.248-1.29.173-1.414z" fill="#313131"/></symbol>


<symbol id="cross" width="16" height="16" viewBox="0 0 16 16" fill="none" xmlns="http://www.w3.org/2000/svg">
<path fill-rule="evenodd" clip-rule="evenodd" d="M15.8526 0.853553C16.0478 0.658291 16.0478 0.341709 15.8526 0.146447C15.6573 -0.0488155 15.3407 -0.0488155 15.1455 0.146447L7.99957 7.29235L0.853663 0.146447C0.658401 -0.0488155 0.341819 -0.0488155 0.146556 0.146447C-0.0487061 0.341709 -0.0487061 0.658291 0.146556 0.853553L7.29246 7.99946L0.146447 15.1455C-0.0488155 15.3407 -0.0488155 15.6573 0.146447 15.8526C0.341709 16.0478 0.658291 16.0478 0.853553 15.8526L7.99957 8.70657L15.1456 15.8526C15.3408 16.0478 15.6574 16.0478 15.8527 15.8526C16.048 15.6573 16.048 15.3407 15.8527 15.1455L8.70668 7.99946L15.8526 0.853553Z" fill="#313131"/>
</symbol>





</svg>