<svg version="1.1" xmlns="http://www.w3.org/2000/svg" xmlns:xlink="http://www.w3.org/1999/xlink">

<symbol id="logo" width="90" height="38" viewBox="0 0 90 38" fill="none" xmlns="http://www.w3.org/2000/svg">
<path fill-rule="evenodd" clip-rule="evenodd" d="M46.318 28.5851C44.9955 27.2369 43.3663 25.8997 41.4909 25.2943C46.4925 24.9577 49.0566 22.8339 49.0566 20.0681C49.0566 15.5425 43.0007 15.0303 39.61 15.0432C35.762 15.056 32.9646 15.2242 32.2758 15.2682H32.1123V15.281V34.746H35.8483V16.3474C36.7759 16.2102 38.08 16.073 39.6964 16.073C42.5746 16.073 45.2747 17.9151 45.2747 20.2053C45.2747 25.0693 39.1692 24.1693 37.6024 25.2302C41.2007 25.6674 44.9055 32.0844 47.488 35.1503C48.7976 36.7106 49.8832 37.885 51.551 37.9838C52.699 38.0533 53.97 37.9216 54.9931 37.1533C52.1167 37.1935 48.8693 31.1753 46.318 28.5851Z" fill="#3A4048"/>
<path fill-rule="evenodd" clip-rule="evenodd" d="M16.1157 14.9499C22.9614 14.9499 28.503 19.5065 28.503 25.1205C28.503 30.7399 22.9614 35.2966 16.1157 35.2966C9.27741 35.2966 3.73584 30.7399 3.73584 25.1205C3.73584 19.5065 9.27557 14.9499 16.1157 14.9499ZM16.1157 15.8736C20.8546 15.8736 24.6972 20.0132 24.6972 25.1187C24.6972 30.2314 20.8546 34.371 16.1157 34.371C11.3824 34.371 7.53981 30.2314 7.53981 25.1187C7.53981 20.0132 11.3824 15.8736 16.1157 15.8736Z" fill="#3A4048"/>
<path fill-rule="evenodd" clip-rule="evenodd" d="M63.9642 16.0986V34.746H60.2282V16.0986H59.0563C55.6087 16.0931 53.4523 16.2925 51.5586 17.659V15.2499C58.5788 15.2499 65.6063 15.2499 72.6338 15.2499V17.659C71.135 16.4169 68.5837 16.0913 65.1361 16.0986H63.9642Z" fill="#3A4048"/>
<path fill-rule="evenodd" clip-rule="evenodd" d="M87.7411 18.5645V16.2541C86.0807 15.356 83.4908 14.906 81.6614 14.8676C79.4352 14.8236 77.1355 15.2243 75.6239 16.3657C73.4859 17.9828 73.5612 20.8364 75.4292 22.6839C76.9959 24.226 79.6483 25.2943 81.9608 26.3735C84.4312 27.5223 86.4995 28.7022 86.4186 31.0125C86.369 32.4613 85.1953 33.3668 83.5294 33.8094C80.9909 34.4844 78.998 34.1094 76.6965 32.8729C75.2179 32.0735 74.1195 31.1991 74.1195 31.1991V33.5094C74.1195 33.5094 76.8343 35.0387 80.776 35.0826C83.0959 35.1082 85.8419 34.8009 87.2397 33.7838C90.3989 31.4863 90.0738 28.1644 88.1544 26.368C86.6005 24.901 84.299 23.9205 82.6624 23.2272C79.4719 21.7291 77.0639 20.4742 77.0639 18.6815C77.0639 16.8889 78.3699 15.806 81.3601 15.806C84.3504 15.806 87.7411 18.5645 87.7411 18.5645Z" fill="#3A4048"/>
<path fill-rule="evenodd" clip-rule="evenodd" d="M9.97556 9.90113C12.1962 12.3139 14.5914 14.0791 18.3917 12.4694C16.5145 12.2133 15.7173 11.7121 14.404 10.3511C12.2421 8.11761 10.5266 5.48533 8.41613 3.18779C6.19546 0.77501 3.8003 -0.990217 0 0.619522C1.88454 0.875617 2.67435 1.37683 3.98765 2.73048C6.15505 4.96582 7.8651 7.6036 9.97556 9.90113Z" fill="#A27413"/>
</symbol>







<symbol id="tooth-icon" width="65" height="49" viewBox="0 0 65 49" fill="none" xmlns="http://www.w3.org/2000/svg">
<path d="M32.0716 40.6768C41.5617 40.6768 49.2549 32.9835 49.2549 23.4934C49.2549 14.0033 41.5617 6.31006 32.0716 6.31006C22.5814 6.31006 14.8882 14.0033 14.8882 23.4934C14.8882 32.9835 22.5814 40.6768 32.0716 40.6768Z" fill="#FEFEFE"/>
<path d="M48.662 4.89038C49.0161 5.20622 49.3613 5.53169 49.697 5.86732C54.2069 10.3774 56.9976 16.6103 56.9976 23.4936C56.9976 30.3768 54.2069 36.6097 49.697 41.1197C46.4631 44.3541 42.3437 46.7035 37.7333 47.7742V45.9301C41.8474 44.8952 45.5238 42.7584 48.4296 39.8525C52.616 35.6662 55.206 29.8817 55.206 23.4936C55.206 17.2242 52.7116 11.5365 48.662 7.37048V4.89038ZM15.4801 7.37048C11.4305 11.5365 8.93609 17.2242 8.93609 23.4936C8.93609 29.8817 11.5261 35.6662 15.7118 39.8525C18.5563 42.6968 22.1382 44.8032 26.146 45.8626V47.7116C21.6419 46.6133 17.6169 44.292 14.4446 41.1197C9.93457 36.6091 7.14453 30.3768 7.14453 23.4936C7.14453 16.6103 9.93523 10.3774 14.4451 5.86732C14.7808 5.5317 15.1266 5.20623 15.4801 4.89038V7.37048H15.4801Z" fill="#FEFEFE"/>
<path fill-rule="evenodd" clip-rule="evenodd" d="M14.4133 6.41466C14.6056 5.72309 14.9556 4.59205 15.6023 3.62036C16.2496 2.64877 17.1933 1.8372 18.175 1.29436C19.1574 0.750867 20.178 0.476229 20.8636 0.295245C21.5497 0.11426 21.9009 0.0265074 22.0818 0.00442748C22.2628 -0.0176525 22.2742 0.0265074 22.1863 0.520378C22.0986 1.0136 21.9117 1.95785 21.6978 2.76999C21.484 3.58157 21.2422 4.26178 20.6169 4.88768C19.9917 5.51292 18.9819 6.0832 18.0765 6.46188C17.1717 6.84046 16.3703 7.02745 15.7337 7.2304C15.0976 7.43291 14.6259 7.6527 14.39 7.71838C14.1541 7.78406 14.1541 7.6963 14.1708 7.52668C14.1876 7.35707 14.2215 7.1056 14.4132 6.41466H14.4133Z" fill="#8A631F"/>
<path fill-rule="evenodd" clip-rule="evenodd" d="M8.82323 12.3789C8.47428 11.7888 7.92707 10.7994 7.68597 9.71121C7.4452 8.62247 7.51077 7.43581 7.78662 6.40052C8.06247 5.36458 8.54858 4.47999 8.87765 3.88819C9.20705 3.29595 9.37896 2.99617 9.48344 2.85693C9.58803 2.7177 9.62596 2.73912 9.90792 3.12633C10.1894 3.51321 10.7159 4.26665 11.1337 4.95124C11.5511 5.63549 11.8594 6.25211 11.8767 7.0968C11.8934 7.94106 11.618 9.01373 11.2796 9.88772C10.9416 10.7612 10.54 11.4367 10.2586 12.0095C9.97721 12.5814 9.81634 13.0516 9.70552 13.2575C9.59459 13.4633 9.53416 13.4053 9.42847 13.2816C9.32279 13.1579 9.17219 12.968 8.82322 12.3789H8.82323Z" fill="#8A631F"/>
<path fill-rule="evenodd" clip-rule="evenodd" d="M6.74562 21.5047C6.14301 21.1782 5.16487 20.611 4.39843 19.8016C3.6322 18.9916 3.07822 17.9401 2.78248 16.9104C2.48631 15.8801 2.44849 14.8714 2.42631 14.1946C2.40434 13.5173 2.39756 13.1718 2.41571 12.9985C2.43375 12.8254 2.47724 12.8243 2.91823 13.0114C3.35866 13.1984 4.19756 13.574 4.90794 13.9463C5.61778 14.3185 6.1993 14.6888 6.64837 15.4044C7.09689 16.1198 7.41219 17.1816 7.57142 18.1051C7.73077 19.028 7.73361 19.8139 7.78672 20.4498C7.83951 21.0851 7.94334 21.5711 7.95415 21.8046C7.96497 22.0383 7.88322 22.0195 7.72891 21.9678C7.57459 21.916 7.34781 21.8306 6.74563 21.5047L6.74562 21.5047Z" fill="#8A631F"/>
<path fill-rule="evenodd" clip-rule="evenodd" d="M7.92213 31.5684C7.23667 31.573 6.10629 31.5481 5.04454 31.2088C3.9827 30.869 2.99013 30.2152 2.23428 29.4558C1.47778 28.6962 0.958112 27.8309 0.612323 27.2488C0.266311 26.666 0.0936386 26.3666 0.0259876 26.2062C-0.0417746 26.0459 -0.00417091 26.0238 0.47232 25.9751C0.948378 25.9264 1.86433 25.8506 2.66619 25.8341C3.4675 25.8177 4.15558 25.8616 4.89415 26.2717C5.63218 26.6821 6.42048 27.46 7.0055 28.1921C7.5903 28.9237 7.97194 29.6107 8.32528 30.1421C8.67784 30.6731 9.00331 31.0487 9.12538 31.2482C9.24757 31.4475 9.1669 31.4706 9.0068 31.4997C8.84669 31.5287 8.60691 31.5634 7.9221 31.5684L7.92213 31.5684Z" fill="#8A631F"/>
<path fill-rule="evenodd" clip-rule="evenodd" d="M13.7348 41.4418C13.0723 41.6178 11.9716 41.8764 10.8587 41.8134C9.74563 41.75 8.62104 41.3652 7.69941 40.8191C6.77689 40.2728 6.05722 39.565 5.5768 39.088C5.09604 38.6103 4.85407 38.3635 4.74839 38.2253C4.64271 38.0869 4.67363 38.0562 5.12281 37.8897C5.57144 37.7235 6.43942 37.421 7.21165 37.2045C7.98333 36.9882 8.66049 36.8586 9.47819 37.0709C10.2955 37.2836 11.2533 37.8397 12.0028 38.4022C12.7519 38.9643 13.2934 39.534 13.7683 39.9601C14.2425 40.386 14.6516 40.6683 14.8197 40.8308C14.9879 40.9933 14.9155 41.0357 14.7678 41.1041C14.62 41.1722 14.3965 41.2658 13.7348 41.4419L13.7348 41.4418Z" fill="#8A631F"/>
<path fill-rule="evenodd" clip-rule="evenodd" d="M22.8934 46.8666C22.3771 47.3175 21.5044 48.0365 20.4786 48.4725C19.4523 48.9082 18.2736 49.0608 17.2054 48.9789C16.1365 48.8972 15.1779 48.5809 14.5359 48.3656C13.8935 48.15 13.5672 48.0359 13.4112 47.9585C13.2553 47.8812 13.2694 47.84 13.5985 47.492C13.9274 47.1444 14.5719 46.4891 15.1686 45.9532C15.765 45.4177 16.3148 45.0019 17.142 44.8305C17.969 44.6596 19.074 44.7344 19.9951 44.9071C20.9157 45.0797 21.6532 45.351 22.2677 45.523C22.8814 45.6951 23.3732 45.7673 23.5959 45.8386C23.8186 45.91 23.7725 45.9799 23.6702 46.1066C23.5679 46.2332 23.4088 46.4159 22.8933 46.8666H22.8934Z" fill="#8A631F"/>
<path fill-rule="evenodd" clip-rule="evenodd" d="M49.7541 6.41466C49.5618 5.72309 49.2118 4.59205 48.5651 3.62036C47.9178 2.64877 46.9742 1.8372 45.9924 1.29436C45.01 0.750867 43.9894 0.476229 43.3038 0.295245C42.6177 0.11426 42.2666 0.0265074 42.0856 0.00442748C41.9046 -0.0176525 41.8932 0.0265074 41.9811 0.520378C42.0689 1.0136 42.2557 1.95785 42.4696 2.76999C42.6834 3.58157 42.9252 4.26178 43.5505 4.88768C44.1757 5.51292 45.1856 6.0832 46.0909 6.46188C46.9957 6.84046 47.7971 7.02745 48.4337 7.2304C49.0698 7.43291 49.5415 7.6527 49.7774 7.71838C50.0133 7.78406 50.0133 7.6963 49.9966 7.52668C49.9798 7.35707 49.9459 7.1056 49.7542 6.41466H49.7541Z" fill="#8A631F"/>
<path fill-rule="evenodd" clip-rule="evenodd" d="M55.3437 12.3789C55.6927 11.7888 56.24 10.7994 56.481 9.71121C56.7217 8.62247 56.6562 7.43581 56.3803 6.40052C56.1046 5.36458 55.6183 4.47999 55.2893 3.88819C54.9599 3.29595 54.788 2.99617 54.6835 2.85693C54.5789 2.7177 54.541 2.73912 54.259 3.12633C53.9775 3.51321 53.451 4.26665 53.0332 4.95124C52.6159 5.63549 52.3075 6.25211 52.2903 7.0968C52.2736 7.94106 52.549 9.01373 52.8873 9.88772C53.2254 10.7612 53.6269 11.4367 53.9083 12.0095C54.1897 12.5814 54.3506 13.0516 54.4614 13.2575C54.5723 13.4633 54.6328 13.4053 54.7385 13.2816C54.8442 13.1579 54.9948 12.968 55.3437 12.3789H55.3437Z" fill="#8A631F"/>
<path fill-rule="evenodd" clip-rule="evenodd" d="M57.4214 21.5047C58.024 21.1782 59.0021 20.611 59.7686 19.8016C60.5348 18.9916 61.0888 17.9401 61.3845 16.9104C61.6807 15.8801 61.7186 14.8714 61.7407 14.1946C61.7626 13.5173 61.7694 13.1718 61.7514 12.9985C61.7332 12.8254 61.6897 12.8243 61.2488 13.0114C60.8083 13.1984 59.9694 13.574 59.2591 13.9463C58.5492 14.3185 57.9677 14.6888 57.5186 15.4044C57.0701 16.1198 56.7548 17.1816 56.5956 18.1051C56.4362 19.028 56.4334 19.8139 56.3803 20.4498C56.3275 21.0851 56.2237 21.5711 56.2128 21.8046C56.2021 22.0383 56.2838 22.0195 56.4381 21.9678C56.5924 21.916 56.8192 21.8306 57.4214 21.5047V21.5047Z" fill="#8A631F"/>
<path fill-rule="evenodd" clip-rule="evenodd" d="M56.2448 31.5684C56.9303 31.573 58.0606 31.5481 59.1224 31.2088C60.1842 30.869 61.1768 30.2152 61.9327 29.4558C62.6892 28.6962 63.2088 27.8309 63.5547 27.2488C63.9006 26.666 64.0733 26.3666 64.1411 26.2062C64.2087 26.0459 64.1711 26.0238 63.6946 25.9751C63.2186 25.9264 62.3026 25.8506 61.5008 25.8341C60.6994 25.8177 60.0114 25.8616 59.2728 26.2717C58.5348 26.6821 57.7465 27.46 57.1614 28.1921C56.5766 28.9237 56.195 29.6107 55.8417 30.1421C55.4891 30.6731 55.1636 31.0487 55.0416 31.2482C54.9194 31.4475 55 31.4706 55.1601 31.4997C55.3202 31.5287 55.56 31.5634 56.2448 31.5684L56.2448 31.5684Z" fill="#8A631F"/>
<path fill-rule="evenodd" clip-rule="evenodd" d="M50.4323 41.4418C51.0948 41.6178 52.1955 41.8764 53.3084 41.8134C54.4215 41.75 55.5461 41.3652 56.4677 40.8191C57.3902 40.2728 58.1099 39.565 58.5903 39.088C59.0711 38.6103 59.313 38.3635 59.4187 38.2253C59.5244 38.0869 59.4935 38.0562 59.0443 37.8897C58.5956 37.7235 57.7277 37.421 56.9554 37.2045C56.1838 36.9882 55.5066 36.8586 54.6889 37.0709C53.8717 37.2836 52.9138 37.8397 52.1643 38.4022C51.4151 38.9643 50.8737 39.534 50.3988 39.9601C49.9246 40.386 49.5155 40.6683 49.3474 40.8308C49.1793 40.9933 49.2516 41.0357 49.3993 41.1041C49.5471 41.1722 49.7706 41.2658 50.4323 41.4419L50.4323 41.4418Z" fill="#8A631F"/>
<path fill-rule="evenodd" clip-rule="evenodd" d="M41.2734 46.8666C41.7897 47.3175 42.6624 48.0365 43.6881 48.4725C44.7145 48.9082 45.8931 49.0608 46.9613 48.9789C48.0303 48.8972 48.9889 48.5809 49.6308 48.3656C50.2733 48.15 50.5996 48.0359 50.7555 47.9585C50.9115 47.8812 50.8974 47.84 50.5682 47.492C50.2394 47.1444 49.5949 46.4891 48.9982 45.9532C48.4018 45.4177 47.8519 45.0019 47.0247 44.8305C46.1977 44.6596 45.0927 44.7344 44.1716 44.9071C43.2511 45.0797 42.5135 45.351 41.8991 45.523C41.2853 45.6951 40.7936 45.7673 40.5709 45.8386C40.3482 45.91 40.3943 45.9799 40.4966 46.1066C40.5989 46.2332 40.758 46.4159 41.2734 46.8666H41.2734Z" fill="#8A631F"/>
<path fill-rule="evenodd" clip-rule="evenodd" d="M22.9028 20.4992C22.9821 21.6455 23.1404 22.865 23.5247 24.4566C23.909 26.0479 24.5186 28.0115 25.0981 29.5848C25.6774 31.1578 26.226 32.3406 26.7079 33.1028C27.1894 33.8651 27.6042 34.2066 27.9579 34.3469C28.3114 34.4871 28.6042 34.4263 28.8726 33.8654C29.1408 33.3043 29.3846 32.243 29.6285 31.249C29.8725 30.2552 30.1161 29.3286 30.348 28.6762C30.5797 28.0237 30.799 27.6455 31.0794 27.4138C31.3077 27.2253 31.5766 27.1338 31.8394 27.1058C32.1022 27.1338 32.371 27.2254 32.5993 27.4138C32.8798 27.6454 33.0991 28.0237 33.3308 28.6762C33.5627 29.3286 33.8063 30.2552 34.0502 31.249C34.2942 32.243 34.5381 33.3043 34.8062 33.8654C35.0747 34.4263 35.3674 34.4871 35.7208 34.3469C36.0746 34.2066 36.4894 33.8651 36.9709 33.1028C37.4527 32.3406 38.0014 31.1578 38.5807 29.5848C39.1602 28.0115 39.7698 26.0479 40.1541 24.4566C40.5384 22.865 40.6966 21.6455 40.776 20.4992C40.8553 19.3526 40.8553 18.2797 40.7395 17.3468C40.6236 16.4137 40.3917 15.6213 39.9586 15.0053C39.5258 14.3894 38.8921 13.9503 38.154 13.6882C37.4162 13.426 36.575 13.3404 35.8553 13.4077C35.1357 13.4747 34.5384 13.6941 33.9284 13.938C33.3188 14.1819 32.6966 14.4505 32.0809 14.5725C32.0003 14.5885 31.9196 14.602 31.8394 14.6131C31.7591 14.602 31.6784 14.5885 31.5978 14.5725C30.9822 14.4504 30.36 14.1819 29.7504 13.938C29.1404 13.6941 28.543 13.4747 27.8236 13.4077C27.1037 13.3404 26.2625 13.426 25.5248 13.6882C24.7867 13.9503 24.1529 14.3894 23.7201 15.0053C23.287 15.6213 23.0551 16.4137 22.9393 17.3468C22.8234 18.2797 22.8234 19.3526 22.9028 20.4992H22.9028Z" fill="#262F33"/>
</symbol>

<symbol id="decor-white" width="102" height="73" viewBox="0 0 102 73" fill="none" xmlns="http://www.w3.org/2000/svg">
<path fill-rule="evenodd" clip-rule="evenodd" d="M54.9943 54.584C67.2367 67.8855 80.441 77.617 101.392 68.7426C91.0429 67.3308 86.6482 64.5677 79.4081 57.0648C67.4898 44.7517 58.0321 30.2401 46.3974 17.574C34.155 4.27256 20.9507 -5.45897 0 3.41537C10.3893 4.8272 14.7435 7.59035 21.9835 15.0529C33.9322 27.3761 43.3596 41.9179 54.9943 54.584Z" fill="white"/>
</symbol>


<symbol id="percent" width="48" height="39" viewBox="0 0 48 39" fill="none" xmlns="http://www.w3.org/2000/svg">
<path fill-rule="evenodd" clip-rule="evenodd" d="M22.7215 29.0628C18.1083 35.3556 12.9025 40.1735 3.42945 37.4426C7.81959 36.3186 9.57596 34.9181 12.3223 31.3517C16.8451 25.497 20.1976 18.8282 24.5805 12.8371C29.1937 6.54438 34.3995 1.72644 43.8725 4.45736C39.4649 5.58337 37.726 6.98185 34.9777 10.531C30.4423 16.3916 27.1044 23.0718 22.7215 29.0628Z" fill="#A27413"/>
<circle cx="11" cy="9" r="7" stroke="black" stroke-width="4"/>
<circle cx="38" cy="30" r="7" stroke="black" stroke-width="4"/>
</symbol>

<symbol id="arrow-btn" width="30" height="30" viewBox="0 0 30 30" fill="none" xmlns="http://www.w3.org/2000/svg">
<circle cx="15" cy="15" r="15" fill="#A27411"/>
<path d="M14.9998 8.0767L15.9084 9.00699L10.5647 14.3507L21.9229 14.3507L21.9229 15.6488L10.5647 15.6488L15.9084 20.9926L14.9998 21.9229L8.0767 14.9998L14.9998 8.0767Z" fill="white"/>
</symbol>

<symbol id="decor-gold" width="48" height="34" viewBox="0 0 48 34" fill="none" xmlns="http://www.w3.org/2000/svg">
<path fill-rule="evenodd" clip-rule="evenodd" d="M25.9127 25.7193C31.6811 31.9868 37.9028 36.5722 47.7746 32.3907C42.8983 31.7255 40.8276 30.4235 37.4162 26.8883C31.8004 21.0864 27.344 14.2488 21.8619 8.28065C16.0934 2.01318 9.87172 -2.5722 0 1.60928C4.89531 2.27452 6.94694 3.57648 10.3584 7.09273C15.9885 12.8993 20.4305 19.7512 25.9127 25.7193Z" fill="#84652D"/>
</symbol>

<symbol id="spoiler-arrow" width="13" height="8" viewBox="0 0 13 8" fill="none" xmlns="http://www.w3.org/2000/svg">
<path d="M4.85904e-05 1.37499L1.07505 0.299987L6.02505 5.24999L10.975 0.299988L12.05 1.37499L6.02505 7.39999L4.85904e-05 1.37499Z" fill="#646E6E"/>
</symbol>


<symbol id="clock" width="21" height="20" viewBox="0 0 21 20" fill="none" xmlns="http://www.w3.org/2000/svg">
<path d="M14.5088 14.825L15.6219 13.7L11.689 9.7V4.675H10.2049V10.3L14.5088 14.825ZM10.8728 20C9.52057 20 8.2426 19.7375 7.03883 19.2125C5.83506 18.6875 4.78382 17.9708 3.88512 17.0625C2.98642 16.1542 2.27735 15.0917 1.75791 13.875C1.23848 12.6583 0.97876 11.3667 0.97876 10C0.97876 8.63333 1.23848 7.34167 1.75791 6.125C2.27735 4.90833 2.98642 3.84583 3.88512 2.9375C4.78382 2.02917 5.83506 1.3125 7.03883 0.7875C8.2426 0.2625 9.52057 0 10.8728 0C12.2249 0 13.5029 0.2625 14.7067 0.7875C15.9104 1.3125 16.9617 2.02917 17.8604 2.9375C18.7591 3.84583 19.4682 4.90833 19.9876 6.125C20.507 7.34167 20.7667 8.63333 20.7667 10C20.7667 11.3667 20.507 12.6583 19.9876 13.875C19.4682 15.0917 18.7591 16.1542 17.8604 17.0625C16.9617 17.9708 15.9104 18.6875 14.7067 19.2125C13.5029 19.7375 12.2249 20 10.8728 20ZM10.8728 18.5C13.1814 18.5 15.1601 17.6667 16.8091 16C18.4581 14.3333 19.2826 12.3333 19.2826 10C19.2826 7.66667 18.4581 5.66667 16.8091 4C15.1601 2.33333 13.1814 1.5 10.8728 1.5C8.56415 1.5 6.58536 2.33333 4.93636 4C3.28736 5.66667 2.46286 7.66667 2.46286 10C2.46286 12.3333 3.28736 14.3333 4.93636 16C6.58536 17.6667 8.56415 18.5 10.8728 18.5Z" fill="#A27411"/>
</symbol>

<symbol id="map" width="17" height="20" viewBox="0 0 17 20" fill="none" xmlns="http://www.w3.org/2000/svg">
<path d="M8.87271 9.75C9.35092 9.75 9.75905 9.57917 10.0971 9.2375C10.4351 8.89583 10.6042 8.48333 10.6042 8C10.6042 7.51667 10.4351 7.10417 10.0971 6.7625C9.75905 6.42083 9.35092 6.25 8.87271 6.25C8.3945 6.25 7.98638 6.42083 7.64833 6.7625C7.31029 7.10417 7.14126 7.51667 7.14126 8C7.14126 8.48333 7.31029 8.89583 7.64833 9.2375C7.98638 9.57917 8.3945 9.75 8.87271 9.75ZM8.87271 18.025C11.0659 16.0083 12.686 14.1792 13.7331 12.5375C14.7803 10.8958 15.3038 9.45 15.3038 8.2C15.3038 6.23333 14.6813 4.625 13.4363 3.375C12.1913 2.125 10.6701 1.5 8.87271 1.5C7.0753 1.5 5.5541 2.125 4.30911 3.375C3.06412 4.625 2.44162 6.23333 2.44162 8.2C2.44162 9.45 2.97754 10.8958 4.04939 12.5375C5.12124 14.1792 6.72901 16.0083 8.87271 18.025ZM8.87271 20C6.21783 17.7167 4.2349 15.5958 2.92395 13.6375C1.613 11.6792 0.95752 9.86667 0.95752 8.2C0.95752 5.7 1.75316 3.70833 3.34445 2.225C4.93573 0.741667 6.77849 0 8.87271 0C10.9669 0 12.8097 0.741667 14.401 2.225C15.9923 3.70833 16.7879 5.7 16.7879 8.2C16.7879 9.86667 16.1324 11.6792 14.8215 13.6375C13.5105 15.5958 11.5276 17.7167 8.87271 20Z" fill="#A27411"/>
</symbol>

<symbol id="vk" width="41" height="41" viewBox="0 0 41 41" fill="none" xmlns="http://www.w3.org/2000/svg">
<path fill-rule="evenodd" clip-rule="evenodd" d="M14.7768 0.916687H27.0562C38.263 0.916687 40.9165 3.57018 40.9165 14.777V27.0564C40.9165 38.2632 38.263 40.9167 27.0562 40.9167H14.7768C3.57 40.9167 0.916504 38.2632 0.916504 27.0564V14.777C0.916504 3.57018 3.57 0.916687 14.7768 0.916687Z" fill="#4680C2"/>
<path fill-rule="evenodd" clip-rule="evenodd" d="M33.6618 14.6923C33.8594 14.0712 33.6618 13.6196 32.7867 13.6196H29.8792C29.1452 13.6196 28.8065 14.0148 28.6089 14.4382C28.6089 14.4382 27.1128 18.0515 25.0239 20.3944C24.3464 21.0719 24.0359 21.2978 23.6689 21.2978C23.4713 21.2978 23.2172 21.0719 23.2172 20.4509V14.664C23.2172 13.9301 22.9914 13.5913 22.3704 13.5913H17.7973C17.3457 13.5913 17.0634 13.9301 17.0634 14.2688C17.0634 14.9745 18.1078 15.1439 18.2208 17.1199V21.4107C18.2208 22.3422 18.0514 22.5116 17.6844 22.5116C16.6964 22.5116 14.297 18.8701 12.8573 14.7205C12.575 13.9019 12.2927 13.5913 11.5588 13.5913H8.62301C7.77615 13.5913 7.63501 13.9865 7.63501 14.41C7.63501 15.1721 8.62301 19.0112 12.2363 24.0924C14.6357 27.5645 18.0514 29.4276 21.1283 29.4276C22.9914 29.4276 23.2172 29.0042 23.2172 28.2985V25.6732C23.2172 24.8263 23.3866 24.6852 23.9794 24.6852C24.4028 24.6852 25.165 24.911 26.8869 26.5765C28.863 28.5525 29.2017 29.4558 30.3026 29.4558H33.2102C34.057 29.4558 34.4522 29.0324 34.2264 28.2138C33.9723 27.3951 33.0126 26.2095 31.7705 24.7981C31.093 24.0077 30.0768 23.1326 29.7663 22.7092C29.3428 22.1446 29.4558 21.9188 29.7663 21.4107C29.738 21.4107 33.2948 16.386 33.6618 14.6923Z" fill="white"/>
</symbol>

<symbol id="wa" width="40" height="40" viewBox="0 0 40 40" fill="none" xmlns="http://www.w3.org/2000/svg">
<path d="M20 40C31.0457 40 40 31.0457 40 20C40 8.9543 31.0457 0 20 0C8.9543 0 0 8.9543 0 20C0 31.0457 8.9543 40 20 40Z" fill="#25D366"/>
<path fill-rule="evenodd" clip-rule="evenodd" d="M20.6593 31.1271H20.6544C18.664 31.1264 16.7083 30.627 14.9712 29.6796L8.66675 31.3333L10.3539 25.1707C9.31319 23.3671 8.76556 21.3212 8.76646 19.2252C8.76907 12.6681 14.1041 7.33334 20.6592 7.33334C23.8406 7.33472 26.8266 8.57323 29.0719 10.8212C31.3172 13.069 32.5531 16.057 32.5519 19.2346C32.5492 25.7902 27.2163 31.1244 20.6593 31.1271ZM15.2633 27.5266L15.6243 27.7408C17.1419 28.6414 18.8816 29.1179 20.6553 29.1186H20.6593C26.1075 29.1186 30.5417 24.6843 30.5439 19.2339C30.5449 16.5927 29.5177 14.1092 27.6515 12.2408C25.7852 10.3724 23.3034 9.34296 20.6632 9.34204C15.2109 9.34204 10.7766 13.7759 10.7744 19.2259C10.7736 21.0936 11.2962 22.9126 12.2857 24.4864L12.5207 24.8604L11.5222 28.508L15.2633 27.5266ZM26.2438 21.7951C26.451 21.8952 26.591 21.9629 26.6507 22.0626C26.725 22.1865 26.725 22.7815 26.4775 23.4757C26.2298 24.1698 25.0426 24.8033 24.4717 24.8886C23.9597 24.9652 23.3119 24.9971 22.6 24.7709C22.1684 24.6339 21.615 24.4511 20.906 24.1449C18.1202 22.942 16.2376 20.242 15.8818 19.7317C15.8569 19.696 15.8394 19.671 15.8297 19.658L15.8273 19.6548C15.67 19.4449 14.6163 18.039 14.6163 16.584C14.6163 15.2152 15.2887 14.4978 15.5982 14.1675C15.6194 14.1449 15.6389 14.1241 15.6564 14.105C15.9287 13.8075 16.2507 13.7331 16.4488 13.7331C16.6469 13.7331 16.8452 13.735 17.0183 13.7437C17.0397 13.7447 17.0619 13.7446 17.0849 13.7445C17.258 13.7435 17.4739 13.7422 17.6869 14.2538C17.7688 14.4506 17.8887 14.7425 18.0151 15.0503C18.2709 15.6728 18.5534 16.3606 18.6031 16.4602C18.6774 16.6089 18.7269 16.7824 18.6279 16.9808C18.613 17.0106 18.5992 17.0386 18.5861 17.0655C18.5117 17.2173 18.457 17.3291 18.3307 17.4765C18.2811 17.5345 18.2297 17.597 18.1784 17.6594C18.0762 17.7839 17.974 17.9084 17.885 17.9971C17.7362 18.1453 17.5813 18.3061 17.7547 18.6036C17.928 18.9011 18.5244 19.8741 19.4078 20.6621C20.3574 21.5091 21.1827 21.8671 21.6011 22.0485C21.6828 22.084 21.7489 22.1127 21.7975 22.137C22.0945 22.2858 22.2679 22.2609 22.4412 22.0626C22.6146 21.8643 23.1841 21.1949 23.3821 20.8974C23.5802 20.6001 23.7784 20.6496 24.0507 20.7487C24.3231 20.848 25.7841 21.5668 26.0812 21.7155C26.1393 21.7446 26.1935 21.7708 26.2438 21.7951Z" fill="#FDFDFD"/>
</symbol>

<symbol id="burger" width="24" height="24" viewBox="0 0 24 24" fill="none" xmlns="http://www.w3.org/2000/svg">
<g clip-path="url(#clip0_1003_279)">
<path d="M3 18H21V16H3V18ZM3 13H21V11H3V13ZM3 6V8H21V6H3Z" fill="#A27411"/>
</g>
<defs>
<clipPath id="clip0_1003_279">
<rect width="24" height="24" fill="white"/>
</clipPath>
</defs>
</symbol>



<symbol id="phone" width="18" height="18" viewBox="0 0 18 18" fill="none" xmlns="http://www.w3.org/2000/svg">
<path d="M3.54 2C3.6 2.89 3.75 3.76 3.99 4.59L2.79 5.79C2.38 4.59 2.12 3.32 2.03 2H3.54ZM13.4 14.02C14.25 14.26 15.12 14.41 16 14.47V15.96C14.68 15.87 13.41 15.61 12.2 15.21L13.4 14.02ZM4.5 0H1C0.45 0 0 0.45 0 1C0 10.39 7.61 18 17 18C17.55 18 18 17.55 18 17V13.51C18 12.96 17.55 12.51 17 12.51C15.76 12.51 14.55 12.31 13.43 11.94C13.33 11.9 13.22 11.89 13.12 11.89C12.86 11.89 12.61 11.99 12.41 12.18L10.21 14.38C7.38 12.93 5.06 10.62 3.62 7.79L5.82 5.59C6.1 5.31 6.18 4.92 6.07 4.57C5.7 3.45 5.5 2.25 5.5 1C5.5 0.45 5.05 0 4.5 0Z" fill="#A27411"/>
</symbol>















</svg>