<svg width="18" height="18" viewBox="0 0 18 18" fill="none" xmlns="http://www.w3.org/2000/svg">
<path d="M11.7466 9.63881L11.7469 9.63893C11.8766 9.68597 12.2302 9.85304 12.5465 10.005C12.877 10.1639 13.2102 10.3275 13.3243 10.3844C13.3536 10.3989 13.3876 10.4153 13.4228 10.4323C13.4911 10.4653 13.5642 10.5005 13.617 10.5294C13.698 10.5737 13.8441 10.6587 13.9384 10.8155M11.7466 9.63881L11.9107 13.1671L11.9769 13.6122C12.276 13.5677 12.6676 13.3998 12.9998 13.1878C13.321 12.983 13.7001 12.6658 13.8458 12.2592L13.8459 12.2592C13.9524 11.9619 14.0072 11.6821 14.0268 11.4559C14.0366 11.3433 14.0382 11.237 14.0309 11.1438C14.0255 11.0754 14.0112 10.9364 13.9384 10.8155M11.7466 9.63881C11.7439 9.63783 11.7411 9.63682 11.7382 9.63577C11.6461 9.60236 11.4656 9.53683 11.2696 9.55917C11.0179 9.58785 10.839 9.73898 10.7156 9.92331L10.7156 9.92334M11.7466 9.63881L10.7156 9.92334M13.9384 10.8155L13.5533 11.0472L13.9383 10.8152C13.9383 10.8153 13.9384 10.8154 13.9384 10.8155ZM10.7156 9.92334C10.5986 10.0983 10.2546 10.5058 10.089 10.697M10.7156 9.92334L10.089 10.697M10.089 10.697C10.0425 10.6742 9.98546 10.6494 9.91882 10.6204C9.59583 10.48 9.04833 10.242 8.39326 9.66051C7.84061 9.16988 7.44391 8.56725 7.28137 8.29994C7.36177 8.21736 7.45931 8.09934 7.53758 8.00462C7.57074 7.9645 7.60044 7.92856 7.62392 7.90127C7.62394 7.90125 7.62395 7.90123 7.62397 7.90121L7.28284 7.60773L10.089 10.697ZM15.0598 2.93478L15.0598 2.93478C16.6673 4.53648 17.5509 6.66289 17.55 8.9262C17.5481 13.5941 13.7305 17.3962 9.0377 17.3962C7.27314 17.3962 5.87075 16.8563 4.96579 16.365L4.80949 16.2802L4.63742 16.3251L0.640661 17.3685L1.70538 13.498L1.75542 13.3161L1.6608 13.1529C0.916364 11.8689 0.524534 10.4125 0.525148 8.91948C0.52703 4.25358 4.34126 0.452956 9.0321 0.450002L9.46867 0.460756C11.5844 0.565604 13.5539 1.4342 15.0598 2.93478ZM6.1829 10.929C6.86637 11.6543 7.84403 12.5062 9.04586 13.0227L4.93622 4.77437C4.92353 4.78816 4.90901 4.80356 4.89292 4.82062C4.64641 5.08201 4.03365 5.73174 4.03365 6.93832C4.03365 7.58861 4.26873 8.20179 4.49802 8.65124C4.728 9.10202 4.97238 9.42665 5.03644 9.51174L5.03849 9.51447C5.03814 9.51401 5.03832 9.51424 5.03923 9.5155C5.04024 9.51691 5.04216 9.51958 5.04529 9.524L5.06626 9.55384L5.06883 9.5575C5.08591 9.58189 5.10845 9.61406 5.13568 9.65237C5.19308 9.73312 5.27139 9.84122 5.36931 9.96963C5.56493 10.2262 5.83912 10.5642 6.1829 10.929Z" stroke="#313131" stroke-width="0.9"/>
</svg>
