<svg width="30" height="18" viewBox="0 0 30 18" fill="none" xmlns="http://www.w3.org/2000/svg">
<path d="M28.5293 1.93683L28.5231 1.9561L28.5186 1.9758C28.436 2.3307 28.1538 2.92043 27.7307 3.6501C27.3175 4.36256 26.8007 5.1575 26.2924 5.90435C25.7847 6.65013 25.2891 7.34255 24.9202 7.84885C24.7358 8.10186 24.5833 8.30807 24.4771 8.45085C24.4239 8.52222 24.3824 8.57773 24.3542 8.61527L24.3222 8.65785L24.3141 8.66855L24.3121 8.67116L24.3116 8.67178L24.3115 8.67191L24.7102 8.97364L24.3115 8.67192L24.3025 8.6839L24.2941 8.69641L24.2831 8.71294C24.1325 8.93876 23.9368 9.23233 23.9077 9.57359C23.8742 9.96551 24.0568 10.2996 24.319 10.6176C24.5154 10.8722 24.8931 11.2191 25.2668 11.5623C25.2842 11.5783 25.3016 11.5943 25.3189 11.6102C25.7369 11.9943 26.1839 12.4065 26.5374 12.7984L26.5373 12.7985L26.5457 12.8074C27.2281 13.5276 27.8169 14.1815 28.2684 14.7548C28.7247 15.3339 29.0093 15.7922 29.126 16.1283C29.2249 16.4506 29.1502 16.5557 29.1212 16.5873C29.0661 16.6473 28.8976 16.745 28.4962 16.745H25.3038C25.0685 16.745 24.8944 16.7025 24.7308 16.6221C24.5576 16.5371 24.3736 16.3987 24.1321 16.1715C23.9353 15.9864 23.7203 15.7621 23.4532 15.4834C23.3891 15.4165 23.322 15.3465 23.2514 15.2732C22.8918 14.8994 22.457 14.4549 21.907 13.939L21.9071 13.9389L21.9003 13.9328C19.9932 12.2078 19.0592 11.8683 18.3857 11.8683C18.0619 11.8683 17.636 11.8993 17.3479 12.2351C17.0862 12.5401 17.0509 12.9768 17.0509 13.3947V16.0803C17.0509 16.2438 17.0355 16.3358 17.0133 16.3938C16.9972 16.4355 16.9734 16.473 16.9055 16.5158C16.7228 16.6307 16.2867 16.745 15.2706 16.745C12.0735 16.745 8.49604 14.9168 5.93527 11.4675L5.93529 11.4675L5.93179 11.4629C3.97659 8.89198 2.73683 6.64142 1.98768 4.94471C1.61296 4.09604 1.36198 3.38818 1.20556 2.85018C1.04468 2.29681 0.994507 1.95899 0.994507 1.83521C0.994507 1.67136 1.02938 1.62218 1.04945 1.60254C1.0749 1.57764 1.19277 1.48828 1.58904 1.48828H4.78142C5.12003 1.48828 5.26618 1.55663 5.36018 1.63781C5.47545 1.73738 5.59311 1.92464 5.74092 2.32512C6.53516 4.49523 7.60178 6.52998 8.61339 8.02957C9.11839 8.77817 9.61874 9.40694 10.0744 9.85485C10.3018 10.0784 10.529 10.2679 10.7502 10.4044C10.9632 10.536 11.217 10.6475 11.4863 10.6475C11.6171 10.6475 11.7816 10.6346 11.9449 10.5655C12.1225 10.4903 12.2644 10.3635 12.365 10.1933C12.5389 9.89879 12.5783 9.48529 12.5783 9.00538V4.59543V4.58085L12.5774 4.56629C12.5115 3.43744 12.1505 2.79272 11.7932 2.33682C11.7143 2.23623 11.6368 2.14617 11.5715 2.07038L11.5589 2.05578C11.4877 1.97302 11.4358 1.91184 11.394 1.8551C11.3154 1.74842 11.3099 1.70648 11.3099 1.67662C11.3099 1.65026 11.3575 1.48828 11.6222 1.48828H16.6388C16.8967 1.48828 16.9462 1.5506 16.9572 1.56434L16.9575 1.56474C16.991 1.60684 17.0509 1.73596 17.0509 2.08908V8.02186C17.0509 8.77776 17.4358 9.37842 18.0475 9.37842C18.6803 9.37842 19.1576 8.99862 19.8777 8.32305L19.8879 8.31354L19.8975 8.30348C21.0889 7.0543 22.0935 5.48247 22.7952 4.23822C23.1477 3.61325 23.4271 3.06488 23.6187 2.6721C23.7145 2.4756 23.7885 2.31778 23.8388 2.20847C23.864 2.1538 23.8832 2.11124 23.8963 2.08202L23.9114 2.04834L23.9151 2.03997C23.9922 1.87206 24.0876 1.74284 24.2142 1.65311C24.3374 1.56577 24.5288 1.48828 24.8478 1.48828H28.0401C28.4697 1.48828 28.5571 1.59558 28.5601 1.59957C28.561 1.60085 28.6131 1.67458 28.5293 1.93683Z" stroke="#313131"/>
</svg>
